<?xml version="1.0" encoding="UTF-8" standalone="no"?>
<!-- Created with Inkscape (http://www.inkscape.org/) -->

<svg
   xmlns:dc="http://purl.org/dc/elements/1.1/"
   xmlns:cc="http://creativecommons.org/ns#"
   xmlns:rdf="http://www.w3.org/1999/02/22-rdf-syntax-ns#"
   xmlns:svg="http://www.w3.org/2000/svg"
   xmlns="http://www.w3.org/2000/svg"
   xmlns:xlink="http://www.w3.org/1999/xlink"
   xmlns:sodipodi="http://sodipodi.sourceforge.net/DTD/sodipodi-0.dtd"
   xmlns:inkscape="http://www.inkscape.org/namespaces/inkscape"
   width="80.85302"
   height="97.527412"
   id="svg5061"
   version="1.1"
   inkscape:version="0.47 r22583"
   sodipodi:docname="hand_open.svg">
  <defs
     id="defs5063">
    <inkscape:perspective
       sodipodi:type="inkscape:persp3d"
       inkscape:vp_x="0 : 526.18109 : 1"
       inkscape:vp_y="0 : 1000 : 0"
       inkscape:vp_z="744.09448 : 526.18109 : 1"
       inkscape:persp3d-origin="372.04724 : 350.78739 : 1"
       id="perspective5069" />
    <inkscape:perspective
       id="perspective5035"
       inkscape:persp3d-origin="0.5 : 0.33333333 : 1"
       inkscape:vp_z="1 : 0.5 : 1"
       inkscape:vp_y="0 : 1000 : 0"
       inkscape:vp_x="0 : 0.5 : 1"
       sodipodi:type="inkscape:persp3d" />
    <filter
       id="filter4730"
       inkscape:menu-tooltip="Draws a black outline around"
       inkscape:menu="ABCs"
       inkscape:label="Black outline"
       color-interpolation-filters="sRGB">
      <feGaussianBlur
         id="feGaussianBlur4732"
         stdDeviation="2"
         in="SourceAlpha"
         result="result0" />
      <feComposite
         id="feComposite4734"
         in2="result0"
         result="result3"
         operator="arithmetic"
         in="SourceGraphic"
         k2="1"
         k3="10"
         k1="0"
         k4="0" />
      <feComposite
         id="feComposite4736"
         in2="result3"
         operator="in"
         in="result3"
         result="result4" />
    </filter>
    <inkscape:perspective
       id="perspective5096"
       inkscape:persp3d-origin="0.5 : 0.33333333 : 1"
       inkscape:vp_z="1 : 0.5 : 1"
       inkscape:vp_y="0 : 1000 : 0"
       inkscape:vp_x="0 : 0.5 : 1"
       sodipodi:type="inkscape:persp3d" />
    <linearGradient
       inkscape:collect="always"
       xlink:href="#linearGradient4081"
       id="linearGradient4993"
       x1="2.4525554"
       y1="31.397676"
       x2="53.617947"
       y2="45.326252"
       gradientUnits="userSpaceOnUse" />
    <linearGradient
       id="linearGradient4081">
      <stop
         style="stop-color:#f0f9af;stop-opacity:1;"
         offset="0"
         id="stop4083" />
      <stop
         style="stop-color:#e9afaf;stop-opacity:0;"
         offset="1"
         id="stop4085" />
    </linearGradient>
    <linearGradient
       gradientTransform="translate(275.42745,525.41895)"
       y2="59.612801"
       x2="51.857616"
       y1="4.8811722"
       x1="-28.357098"
       gradientUnits="userSpaceOnUse"
       id="linearGradient5105"
       xlink:href="#linearGradient4081"
       inkscape:collect="always" />
  </defs>
  <sodipodi:namedview
     id="base"
     pagecolor="#ffffff"
     bordercolor="#666666"
     borderopacity="1.0"
     inkscape:pageopacity="0.0"
     inkscape:pageshadow="2"
     inkscape:zoom="1.979899"
     inkscape:cx="114.83013"
     inkscape:cy="89.104714"
     inkscape:document-units="px"
     inkscape:current-layer="layer1"
     showgrid="false"
     borderlayer="false"
     inkscape:window-width="1280"
     inkscape:window-height="962"
     inkscape:window-x="-8"
     inkscape:window-y="-8"
     inkscape:window-maximized="1" />
  <metadata
     id="metadata5066">
    <rdf:RDF>
      <cc:Work
         rdf:about="">
        <dc:format>image/svg+xml</dc:format>
        <dc:type
           rdf:resource="http://purl.org/dc/dcmitype/StillImage" />
        <dc:title></dc:title>
      </cc:Work>
    </rdf:RDF>
  </metadata>
  <g
     inkscape:label="Layer 1"
     inkscape:groupmode="layer"
     id="layer1"
     transform="translate(-262.43063,-509.31279)">
    <path
       style="fill:#008000;fill-opacity:1;stroke:#ffd047;stroke-width:0.35714287;stroke-opacity:0.5335968;filter:url(#filter4730)"
       d="m 312.27194,601.10835 c -5.3663,0.42695 -14.22958,-2.45745 -16.68989,-3.98749 -5.06189,-3.14793 -13.78615,-11.94876 -15.85506,-16.85407 -4.57129,-10.83837 -7.44851,-8.18298 -9.45426,-14.39067 -1.53522,-4.75142 -5.386,-6.19878 -5.1947,-11.95249 6.87877,-5.45814 15.12695,7.29926 15.94075,10.38946 1.30951,3.32575 6.92358,-0.46932 10.67338,6.40594 1.29897,-1.245 -1.48071,-9.42587 -1.48129,-18.3392 -1.93175,-2.83887 -10.83709,-27.22943 -9.14418,-30.50974 0.56763,-3.54154 5.85051,-2.87061 7.09447,0.43857 1.57337,1.80354 11.83918,33.3041 14.62396,33.97654 1.80348,-1.1137 1.25001,-8.31189 0.29719,-16.24464 -1.57674,-13.12726 -6.3058,-28.43959 -0.87125,-29.79832 6.31875,-1.5798 7.01782,16.7878 9.6171,29.43036 1.7269,8.39941 1.01293,15.31685 2.93365,14.73588 2.60176,-0.53645 4.37186,-3.6619 5.56398,-12.02715 1.6593,-11.64355 1.25007,-25.97249 5.93914,-25.739 6.17676,1.03164 4.15323,18.55514 0.48362,30.71341 -2.27819,7.54817 -1.15813,9.03009 -0.97533,9.56004 2.34867,0.83447 4.76542,-1.73043 6.35485,-8.05268 2.73013,-10.85967 5.80005,-21.95989 9.84113,-19.78428 4.02373,2.16626 -1.1024,16.47929 -2.3605,19.24674 -2.30873,9.32474 -5.03819,26.38174 -5.25964,27.79375 0.21301,4.12754 -5.43284,16.22059 -7.44053,18.52472 -5.92452,5.55315 -9.6781,5.88164 -14.63659,6.46432 z"
       id="path4720"
       sodipodi:nodetypes="cssscccccccssscscscsscccc"
       transform="matrix(0.94328554,0,0,0.96420063,15.649787,21.856166)" />
    <path
       d="m 277.46681,577.68535 c -2.68186,-3.19311 -13.62971,-18.22567 -11.32462,-21.78853 0.85075,-0.30879 3.65056,-2.7383 7.59914,0.47256 3.37792,2.74682 6.74196,10.20808 7.99757,11.03994 1.02571,0.67956 3.49374,-0.23631 5.37432,0.70572 2.70479,1.35489 4.01594,5.44464 4.13153,3.87672 0.24276,-3.29291 -1.57091,-15.79281 -1.98419,-17.4106 -1.06132,-4.15451 -3.51011,-8.58657 -4.84733,-12.52099 -2.53034,-7.44487 -4.25882,-15.63465 -3.49756,-17.18221 1.02443,-2.13303 3.43228,-1.78088 4.79616,-1.29207 2.0877,0.74824 13.27359,34.85621 15.61574,34.78984 4.63275,-0.13128 -5.80473,-40.55636 -2.03931,-43.22717 7.65835,-5.43207 6.8499,41.59236 12.39557,42.04763 8.20732,0.67377 5.03779,-34.45914 10.82598,-37.01489 4.97831,-2.19814 -3.53323,35.61112 0.20577,39.40309 4.97256,5.04301 10.86434,-30.67395 13.95238,-26.43766 -5.7989,13.82524 -5.48146,28.00149 -9.28223,32.74864 -11.65169,14.55291 -17.54399,22.45305 -34.92463,17.80493 -3.11132,0.38557 -10.3719,-3.05352 -14.99429,-6.01495 z"
       id="path4849"
       style="fill:url(#linearGradient5105);fill-opacity:1"
       sodipodi:nodetypes="ccsssssscsssssscscc" />
  </g>
</svg>
