<?xml version="1.0" encoding="UTF-8" standalone="no"?>
<!-- Created with Inkscape (http://www.inkscape.org/) -->

<svg
   xmlns:dc="http://purl.org/dc/elements/1.1/"
   xmlns:cc="http://creativecommons.org/ns#"
   xmlns:rdf="http://www.w3.org/1999/02/22-rdf-syntax-ns#"
   xmlns:svg="http://www.w3.org/2000/svg"
   xmlns="http://www.w3.org/2000/svg"
   xmlns:xlink="http://www.w3.org/1999/xlink"
   xmlns:sodipodi="http://sodipodi.sourceforge.net/DTD/sodipodi-0.dtd"
   xmlns:inkscape="http://www.inkscape.org/namespaces/inkscape"
   width="105.71"
   height="128.14"
   id="svg2891"
   version="1.1"
   inkscape:version="0.47 r22583"
   sodipodi:docname="pack.svg"
   inkscape:export-filename="D:\PROGRAMMING\Makao_v3\Makao\src\fxclient\images\pack.png"
   inkscape:export-xdpi="90"
   inkscape:export-ydpi="90">
  <defs
     id="defs2893">
    <inkscape:perspective
       sodipodi:type="inkscape:persp3d"
       inkscape:vp_x="0 : 526.18109 : 1"
       inkscape:vp_y="0 : 1000 : 0"
       inkscape:vp_z="744.09448 : 526.18109 : 1"
       inkscape:persp3d-origin="372.04724 : 350.78739 : 1"
       id="perspective2899" />
    <inkscape:perspective
       id="perspective2886"
       inkscape:persp3d-origin="0.5 : 0.33333333 : 1"
       inkscape:vp_z="1 : 0.5 : 1"
       inkscape:vp_y="0 : 1000 : 0"
       inkscape:vp_x="0 : 0.5 : 1"
       sodipodi:type="inkscape:persp3d" />
    <inkscape:perspective
       id="perspective2918"
       inkscape:persp3d-origin="0.5 : 0.33333333 : 1"
       inkscape:vp_z="1 : 0.5 : 1"
       inkscape:vp_y="0 : 1000 : 0"
       inkscape:vp_x="0 : 0.5 : 1"
       sodipodi:type="inkscape:persp3d" />
    <inkscape:perspective
       id="perspective2918-2"
       inkscape:persp3d-origin="0.5 : 0.33333333 : 1"
       inkscape:vp_z="1 : 0.5 : 1"
       inkscape:vp_y="0 : 1000 : 0"
       inkscape:vp_x="0 : 0.5 : 1"
       sodipodi:type="inkscape:persp3d" />
    <inkscape:perspective
       id="perspective2918-7"
       inkscape:persp3d-origin="0.5 : 0.33333333 : 1"
       inkscape:vp_z="1 : 0.5 : 1"
       inkscape:vp_y="0 : 1000 : 0"
       inkscape:vp_x="0 : 0.5 : 1"
       sodipodi:type="inkscape:persp3d" />
  </defs>
  <sodipodi:namedview
     id="base"
     pagecolor="#ffffff"
     bordercolor="#666666"
     borderopacity="1.0"
     inkscape:pageopacity="0.0"
     inkscape:pageshadow="2"
     inkscape:zoom="3.959798"
     inkscape:cx="79.358117"
     inkscape:cy="86.205983"
     inkscape:document-units="px"
     inkscape:current-layer="layer1"
     showgrid="false"
     inkscape:window-width="1280"
     inkscape:window-height="962"
     inkscape:window-x="-8"
     inkscape:window-y="-8"
     inkscape:window-maximized="1" />
  <metadata
     id="metadata2896">
    <rdf:RDF>
      <cc:Work
         rdf:about="">
        <dc:format>image/svg+xml</dc:format>
        <dc:type
           rdf:resource="http://purl.org/dc/dcmitype/StillImage" />
        <dc:title></dc:title>
      </cc:Work>
    </rdf:RDF>
  </metadata>
  <g
     inkscape:label="Layer 1"
     inkscape:groupmode="layer"
     id="layer1"
     transform="translate(-172.64287,-280.07933)">
    <image
       xlink:href="file:///D:/PROGRAMMING/Makao_v3/Makao/cards/b2fv.gif"
       width="75.887177"
       height="99.654495"
       id="image2876"
       x="194.39001"
       y="297.95822" />
    <image
       xlink:href="file:///D:/PROGRAMMING/Makao_v3/Makao/cards/b2fv.gif"
       width="75.887177"
       height="99.654495"
       id="image2876-9"
       x="191.3362"
       y="294.25089" />
    <image
       xlink:href="file:///D:/PROGRAMMING/Makao_v3/Makao/cards/b2fv.gif"
       width="75.887177"
       height="99.654495"
       id="image2876-93"
       x="187.51894"
       y="290.54346" />
    <image
       xlink:href="file:///D:/PROGRAMMING/Makao_v3/Makao/cards/b2fv.gif"
       width="75.887177"
       height="99.654495"
       id="image2876-5"
       x="184.00708"
       y="287.42926"
       style="fill:#008000" />
    <path
       style="fill:#0000ff;fill-opacity:1;stroke:#ffd047;stroke-width:0.17857143;stroke-opacity:0.5335968"
       d="m 18.911586,57.22438 0,-42.5 30.446429,0 30.446428,0 0,42.5 0,42.5 -30.446428,0 -30.446429,0 0,-42.5 z m 3.214286,39.910714 0,-0.625 -1.071429,0 -1.071429,0 0,0.625 0,0.625 1.071429,0 1.071429,0 0,-0.625 z m 4.285714,0 0,-0.625 -1.071429,0 -1.071428,0 0,0.625 0,0.625 1.071428,0 1.071429,0 0,-0.625 z m 4.285714,0 0,-0.625 -1.071428,0 -1.071429,0 0,0.625 0,0.625 1.071429,0 1.071428,0 0,-0.625 z m 4.285715,0 0,-0.625 -1.071429,0 -1.071429,0 0,0.625 0,0.625 1.071429,0 1.071429,0 0,-0.625 z m 4.285714,0 0,-0.625 -1.071429,0 -1.071428,0 0,0.625 0,0.625 1.071428,0 1.071429,0 0,-0.625 z m 4.285714,0 0,-0.625 -1.071428,0 -1.071429,0 0,0.625 0,0.625 1.071429,0 1.071428,0 0,-0.625 z m 4.285714,0 0,-0.625 -1.071428,0 -1.071429,0 0,0.625 0,0.625 1.071429,0 1.071428,0 0,-0.625 z m 4.285715,0 0,-0.625 -1.071429,0 -1.071428,0 0,0.625 0,0.625 1.071428,0 1.071429,0 0,-0.625 z m 4.285714,0 0,-0.625 -1.071429,0 -1.071428,0 0,0.625 0,0.625 1.071428,0 1.071429,0 0,-0.625 z m 4.285714,0 0,-0.625 -1.071428,0 -1.071429,0 0,0.625 0,0.625 1.071429,0 1.071428,0 0,-0.625 z m 4.285715,0 0,-0.625 -1.160715,0 -1.160714,0 0,0.625 0,0.625 1.160714,0 1.160715,0 0,-0.625 z m 4.285714,0 0,-0.625 -1.160714,0 -1.160715,0 0,0.625 0,0.625 1.160715,0 1.160714,0 0,-0.625 z m 4.285714,0 0,-0.625 -1.160714,0 -1.160714,0 0,0.625 0,0.625 1.160714,0 1.160714,0 0,-0.625 z m 4.285714,0 0,-0.625 -1.160714,0 -1.160714,0 0,0.625 0,0.625 1.160714,0 1.160714,0 0,-0.625 z M 24.268729,95.081523 c 0,-0.535715 0,-0.535715 -1.071429,-0.535715 -1.071428,0 -1.071428,0 -1.071428,0.535715 0,0.535714 0,0.535714 1.071428,0.535714 1.071429,0 1.071429,0 1.071429,-0.535714 z m 4.285714,0 c 0,-0.535715 0,-0.535715 -1.071429,-0.535715 -1.071428,0 -1.071428,0 -1.071428,0.535715 0,0.535714 0,0.535714 1.071428,0.535714 1.071429,0 1.071429,0 1.071429,-0.535714 z m 4.285714,0 c 0,-0.535715 0,-0.535715 -1.071428,-0.535715 -1.071429,0 -1.071429,0 -1.071429,0.535715 0,0.535714 0,0.535714 1.071429,0.535714 1.071428,0 1.071428,0 1.071428,-0.535714 z m 4.285715,0 c 0,-0.535715 0,-0.535715 -1.071429,-0.535715 -1.071428,0 -1.071428,0 -1.071428,0.535715 0,0.535714 0,0.535714 1.071428,0.535714 1.071429,0 1.071429,0 1.071429,-0.535714 z m 4.285714,0 c 0,-0.535715 0,-0.535715 -1.071429,-0.535715 -1.071428,0 -1.071428,0 -1.071428,0.535715 0,0.535714 0,0.535714 1.071428,0.535714 1.071429,0 1.071429,0 1.071429,-0.535714 z m 4.285714,0 c 0,-0.535715 0,-0.535715 -1.071428,-0.535715 -1.071429,0 -1.071429,0 -1.071429,0.535715 0,0.535714 0,0.535714 1.071429,0.535714 1.071428,0 1.071428,0 1.071428,-0.535714 z m 4.285715,0 c 0,-0.535715 0,-0.535715 -1.071429,-0.535715 -1.071429,0 -1.071429,0 -1.071429,0.535715 0,0.535714 0,0.535714 1.071429,0.535714 1.071429,0 1.071429,0 1.071429,-0.535714 z m 4.285714,0 c 0,-0.535715 0,-0.535715 -1.071429,-0.535715 -1.071428,0 -1.071428,0 -1.071428,0.535715 0,0.535714 0,0.535714 1.071428,0.535714 1.071429,0 1.071429,0 1.071429,-0.535714 z m 4.285714,0 c 0,-0.535715 0,-0.535715 -1.071428,-0.535715 -1.071429,0 -1.071429,0 -1.071429,0.535715 0,0.535714 0,0.535714 1.071429,0.535714 1.071428,0 1.071428,0 1.071428,-0.535714 z m 4.285714,0 c 0,-0.535715 0,-0.535715 -1.071428,-0.535715 -1.071429,0 -1.071429,0 -1.071429,0.535715 0,0.535714 0,0.535714 1.071429,0.535714 1.071428,0 1.071428,0 1.071428,-0.535714 z m 4.285715,0 0,-0.535715 -1.160715,0 -1.160714,0 0,0.535715 0,0.535714 1.160714,0 1.160715,0 0,-0.535714 z m 4.285714,0 0,-0.535715 -1.160714,0 -1.160715,0 0,0.535715 0,0.535714 1.160715,0 1.160714,0 0,-0.535714 z m 4.285714,0 0,-0.535715 -1.160714,0 -1.160714,0 0,0.535715 0,0.535714 1.160714,0 1.160714,0 0,-0.535714 z m 3.214286,0 c 0,-0.493197 -0.0496,-0.535715 -0.625,-0.535715 -0.575396,0 -0.625,0.04252 -0.625,0.535715 0,0.493196 0.0496,0.535714 0.625,0.535714 0.575396,0 0.625,-0.04252 0.625,-0.535714 z M 22.125872,92.938665 c 0,-0.535714 0,-0.535714 -1.071429,-0.535714 -1.071429,0 -1.071429,0 -1.071429,0.535714 0,0.535715 0,0.535715 1.071429,0.535715 1.071429,0 1.071429,0 1.071429,-0.535715 z m 4.285714,0 c 0,-0.535714 0,-0.535714 -1.071429,-0.535714 -1.071428,0 -1.071428,0 -1.071428,0.535714 0,0.535715 0,0.535715 1.071428,0.535715 1.071429,0 1.071429,0 1.071429,-0.535715 z m 4.285714,0 c 0,-0.535714 0,-0.535714 -1.071428,-0.535714 -1.071429,0 -1.071429,0 -1.071429,0.535714 0,0.535715 0,0.535715 1.071429,0.535715 1.071428,0 1.071428,0 1.071428,-0.535715 z m 4.285715,0 c 0,-0.535714 0,-0.535714 -1.071429,-0.535714 -1.071429,0 -1.071429,0 -1.071429,0.535714 0,0.535715 0,0.535715 1.071429,0.535715 1.071429,0 1.071429,0 1.071429,-0.535715 z m 4.285714,0 c 0,-0.535714 0,-0.535714 -1.071429,-0.535714 -1.071428,0 -1.071428,0 -1.071428,0.535714 0,0.535715 0,0.535715 1.071428,0.535715 1.071429,0 1.071429,0 1.071429,-0.535715 z m 4.285714,0 c 0,-0.535714 0,-0.535714 -1.071428,-0.535714 -1.071429,0 -1.071429,0 -1.071429,0.535714 0,0.535715 0,0.535715 1.071429,0.535715 1.071428,0 1.071428,0 1.071428,-0.535715 z m 4.285714,0 c 0,-0.535714 0,-0.535714 -1.071428,-0.535714 -1.071429,0 -1.071429,0 -1.071429,0.535714 0,0.535715 0,0.535715 1.071429,0.535715 1.071428,0 1.071428,0 1.071428,-0.535715 z m 4.285715,0 c 0,-0.535714 0,-0.535714 -1.071429,-0.535714 -1.071428,0 -1.071428,0 -1.071428,0.535714 0,0.535715 0,0.535715 1.071428,0.535715 1.071429,0 1.071429,0 1.071429,-0.535715 z m 4.285714,0 c 0,-0.535714 0,-0.535714 -1.071429,-0.535714 -1.071428,0 -1.071428,0 -1.071428,0.535714 0,0.535715 0,0.535715 1.071428,0.535715 1.071429,0 1.071429,0 1.071429,-0.535715 z m 4.285714,0 c 0,-0.535714 0,-0.535714 -1.071428,-0.535714 -1.071429,0 -1.071429,0 -1.071429,0.535714 0,0.535715 0,0.535715 1.071429,0.535715 1.071428,0 1.071428,0 1.071428,-0.535715 z m 4.285715,0 0,-0.535714 -1.160715,0 -1.160714,0 0,0.535714 0,0.535715 1.160714,0 1.160715,0 0,-0.535715 z m 4.285714,0 0,-0.535714 -1.160714,0 -1.160715,0 0,0.535714 0,0.535715 1.160715,0 1.160714,0 0,-0.535715 z m 4.285714,0 0,-0.535714 -1.160714,0 -1.160714,0 0,0.535714 0,0.535715 1.160714,0 1.160714,0 0,-0.535715 z m 4.285714,0 0,-0.535714 -1.160714,0 -1.160714,0 0,0.535714 0,0.535715 1.160714,0 1.160714,0 0,-0.535715 z m -53.571428,-2.053571 0,-0.625 -1.071429,0 -1.071428,0 0,0.625 0,0.625 1.071428,0 1.071429,0 0,-0.625 z m 4.285714,0 0,-0.625 -1.071429,0 -1.071428,0 0,0.625 0,0.625 1.071428,0 1.071429,0 0,-0.625 z m 4.285714,0 0,-0.625 -1.071428,0 -1.071429,0 0,0.625 0,0.625 1.071429,0 1.071428,0 0,-0.625 z m 4.285715,0 0,-0.625 -1.071429,0 -1.071428,0 0,0.625 0,0.625 1.071428,0 1.071429,0 0,-0.625 z m 4.285714,0 0,-0.625 -1.071429,0 -1.071428,0 0,0.625 0,0.625 1.071428,0 1.071429,0 0,-0.625 z m 4.285714,0 0,-0.625 -1.071428,0 -1.071429,0 0,0.625 0,0.625 1.071429,0 1.071428,0 0,-0.625 z m 4.285715,0 0,-0.625 -1.071429,0 -1.071429,0 0,0.625 0,0.625 1.071429,0 1.071429,0 0,-0.625 z m 4.285714,0 0,-0.625 -1.071429,0 -1.071428,0 0,0.625 0,0.625 1.071428,0 1.071429,0 0,-0.625 z m 4.285714,0 0,-0.625 -1.071428,0 -1.071429,0 0,0.625 0,0.625 1.071429,0 1.071428,0 0,-0.625 z m 4.285714,0 0,-0.625 -1.071428,0 -1.071429,0 0,0.625 0,0.625 1.071429,0 1.071428,0 0,-0.625 z m 4.285715,0 0,-0.625 -1.160715,0 -1.160714,0 0,0.625 0,0.625 1.160714,0 1.160715,0 0,-0.625 z m 4.285714,0 0,-0.625 -1.160714,0 -1.160715,0 0,0.625 0,0.625 1.160715,0 1.160714,0 0,-0.625 z m 4.285714,0 0,-0.625 -1.160714,0 -1.160714,0 0,0.625 0,0.625 1.160714,0 1.160714,0 0,-0.625 z m 3.214286,0 c 0,-0.595238 -0.02976,-0.625 -0.625,-0.625 -0.595237,0 -0.625,0.02976 -0.625,0.625 0,0.595237 0.02976,0.625 0.625,0.625 0.595238,0 0.625,-0.02976 0.625,-0.625 z M 22.125872,88.831523 c 0,-0.535715 0,-0.535715 -1.071429,-0.535715 -1.071429,0 -1.071429,0 -1.071429,0.535715 0,0.535714 0,0.535714 1.071429,0.535714 1.071429,0 1.071429,0 1.071429,-0.535714 z m 4.285714,0 c 0,-0.535715 0,-0.535715 -1.071429,-0.535715 -1.071428,0 -1.071428,0 -1.071428,0.535715 0,0.535714 0,0.535714 1.071428,0.535714 1.071429,0 1.071429,0 1.071429,-0.535714 z m 4.285714,0 c 0,-0.535715 0,-0.535715 -1.071428,-0.535715 -1.071429,0 -1.071429,0 -1.071429,0.535715 0,0.535714 0,0.535714 1.071429,0.535714 1.071428,0 1.071428,0 1.071428,-0.535714 z m 4.285715,0 c 0,-0.535715 0,-0.535715 -1.071429,-0.535715 -1.071429,0 -1.071429,0 -1.071429,0.535715 0,0.535714 0,0.535714 1.071429,0.535714 1.071429,0 1.071429,0 1.071429,-0.535714 z m 4.285714,0 c 0,-0.535715 0,-0.535715 -1.071429,-0.535715 -1.071428,0 -1.071428,0 -1.071428,0.535715 0,0.535714 0,0.535714 1.071428,0.535714 1.071429,0 1.071429,0 1.071429,-0.535714 z m 4.285714,0 c 0,-0.535715 0,-0.535715 -1.071428,-0.535715 -1.071429,0 -1.071429,0 -1.071429,0.535715 0,0.535714 0,0.535714 1.071429,0.535714 1.071428,0 1.071428,0 1.071428,-0.535714 z m 4.285714,0 c 0,-0.535715 0,-0.535715 -1.071428,-0.535715 -1.071429,0 -1.071429,0 -1.071429,0.535715 0,0.535714 0,0.535714 1.071429,0.535714 1.071428,0 1.071428,0 1.071428,-0.535714 z m 4.285715,0 c 0,-0.535715 0,-0.535715 -1.071429,-0.535715 -1.071428,0 -1.071428,0 -1.071428,0.535715 0,0.535714 0,0.535714 1.071428,0.535714 1.071429,0 1.071429,0 1.071429,-0.535714 z m 4.285714,0 c 0,-0.535715 0,-0.535715 -1.071429,-0.535715 -1.071428,0 -1.071428,0 -1.071428,0.535715 0,0.535714 0,0.535714 1.071428,0.535714 1.071429,0 1.071429,0 1.071429,-0.535714 z m 4.285714,0 c 0,-0.535715 0,-0.535715 -1.071428,-0.535715 -1.071429,0 -1.071429,0 -1.071429,0.535715 0,0.535714 0,0.535714 1.071429,0.535714 1.071428,0 1.071428,0 1.071428,-0.535714 z m 4.285715,0 0,-0.535715 -1.160715,0 -1.160714,0 0,0.535715 0,0.535714 1.160714,0 1.160715,0 0,-0.535714 z m 4.285714,0 0,-0.535715 -1.160714,0 -1.160715,0 0,0.535715 0,0.535714 1.160715,0 1.160714,0 0,-0.535714 z m 4.285714,0 0,-0.535715 -1.160714,0 -1.160714,0 0,0.535715 0,0.535714 1.160714,0 1.160714,0 0,-0.535714 z m 4.285714,0 0,-0.535715 -1.160714,0 -1.160714,0 0,0.535715 0,0.535714 1.160714,0 1.160714,0 0,-0.535714 z M 24.268729,86.688665 c 0,-0.535714 0,-0.535714 -1.071429,-0.535714 -1.071428,0 -1.071428,0 -1.071428,0.535714 0,0.535715 0,0.535715 1.071428,0.535715 1.071429,0 1.071429,0 1.071429,-0.535715 z m 4.285714,0 c 0,-0.535714 0,-0.535714 -1.071429,-0.535714 -1.071428,0 -1.071428,0 -1.071428,0.535714 0,0.535715 0,0.535715 1.071428,0.535715 1.071429,0 1.071429,0 1.071429,-0.535715 z m 4.285714,0 c 0,-0.535714 0,-0.535714 -1.071428,-0.535714 -1.071429,0 -1.071429,0 -1.071429,0.535714 0,0.535715 0,0.535715 1.071429,0.535715 1.071428,0 1.071428,0 1.071428,-0.535715 z m 4.285715,0 c 0,-0.535714 0,-0.535714 -1.071429,-0.535714 -1.071428,0 -1.071428,0 -1.071428,0.535714 0,0.535715 0,0.535715 1.071428,0.535715 1.071429,0 1.071429,0 1.071429,-0.535715 z m 4.285714,0 c 0,-0.535714 0,-0.535714 -1.071429,-0.535714 -1.071428,0 -1.071428,0 -1.071428,0.535714 0,0.535715 0,0.535715 1.071428,0.535715 1.071429,0 1.071429,0 1.071429,-0.535715 z m 4.285714,0 c 0,-0.535714 0,-0.535714 -1.071428,-0.535714 -1.071429,0 -1.071429,0 -1.071429,0.535714 0,0.535715 0,0.535715 1.071429,0.535715 1.071428,0 1.071428,0 1.071428,-0.535715 z m 4.285715,0 c 0,-0.535714 0,-0.535714 -1.071429,-0.535714 -1.071429,0 -1.071429,0 -1.071429,0.535714 0,0.535715 0,0.535715 1.071429,0.535715 1.071429,0 1.071429,0 1.071429,-0.535715 z m 4.285714,0 c 0,-0.535714 0,-0.535714 -1.071429,-0.535714 -1.071428,0 -1.071428,0 -1.071428,0.535714 0,0.535715 0,0.535715 1.071428,0.535715 1.071429,0 1.071429,0 1.071429,-0.535715 z m 4.285714,0 c 0,-0.535714 0,-0.535714 -1.071428,-0.535714 -1.071429,0 -1.071429,0 -1.071429,0.535714 0,0.535715 0,0.535715 1.071429,0.535715 1.071428,0 1.071428,0 1.071428,-0.535715 z m 4.285714,0 c 0,-0.535714 0,-0.535714 -1.071428,-0.535714 -1.071429,0 -1.071429,0 -1.071429,0.535714 0,0.535715 0,0.535715 1.071429,0.535715 1.071428,0 1.071428,0 1.071428,-0.535715 z m 4.285715,0 0,-0.535714 -1.160715,0 -1.160714,0 0,0.535714 0,0.535715 1.160714,0 1.160715,0 0,-0.535715 z m 4.285714,0 0,-0.535714 -1.160714,0 -1.160715,0 0,0.535714 0,0.535715 1.160715,0 1.160714,0 0,-0.535715 z m 4.285714,0 0,-0.535714 -1.160714,0 -1.160714,0 0,0.535714 0,0.535715 1.160714,0 1.160714,0 0,-0.535715 z m 3.214286,0 c 0,-0.493196 -0.0496,-0.535714 -0.625,-0.535714 -0.575396,0 -0.625,0.04252 -0.625,0.535714 0,0.493197 0.0496,0.535715 0.625,0.535715 0.575396,0 0.625,-0.04252 0.625,-0.535715 z m -56.785714,-2.053571 0,-0.625 -1.071429,0 -1.071429,0 0,0.625 0,0.625 1.071429,0 1.071429,0 0,-0.625 z m 4.285714,0 0,-0.625 -1.071429,0 -1.071428,0 0,0.625 0,0.625 1.071428,0 1.071429,0 0,-0.625 z m 4.285714,0 0,-0.625 -1.071428,0 -1.071429,0 0,0.625 0,0.625 1.071429,0 1.071428,0 0,-0.625 z m 4.285715,0 0,-0.625 -1.071429,0 -1.071429,0 0,0.625 0,0.625 1.071429,0 1.071429,0 0,-0.625 z m 4.285714,0 0,-0.625 -1.071429,0 -1.071428,0 0,0.625 0,0.625 1.071428,0 1.071429,0 0,-0.625 z m 4.285714,0 0,-0.625 -1.071428,0 -1.071429,0 0,0.625 0,0.625 1.071429,0 1.071428,0 0,-0.625 z m 4.285714,0 0,-0.625 -1.071428,0 -1.071429,0 0,0.625 0,0.625 1.071429,0 1.071428,0 0,-0.625 z m 4.285715,0 0,-0.625 -1.071429,0 -1.071428,0 0,0.625 0,0.625 1.071428,0 1.071429,0 0,-0.625 z m 4.285714,0 0,-0.625 -1.071429,0 -1.071428,0 0,0.625 0,0.625 1.071428,0 1.071429,0 0,-0.625 z m 4.285714,0 0,-0.625 -1.071428,0 -1.071429,0 0,0.625 0,0.625 1.071429,0 1.071428,0 0,-0.625 z m 4.285715,0 0,-0.625 -1.160715,0 -1.160714,0 0,0.625 0,0.625 1.160714,0 1.160715,0 0,-0.625 z m 4.285714,0 0,-0.625 -1.160714,0 -1.160715,0 0,0.625 0,0.625 1.160715,0 1.160714,0 0,-0.625 z m 4.285714,0 0,-0.625 -1.160714,0 -1.160714,0 0,0.625 0,0.625 1.160714,0 1.160714,0 0,-0.625 z m 4.285714,0 0,-0.625 -1.160714,0 -1.160714,0 0,0.625 0,0.625 1.160714,0 1.160714,0 0,-0.625 z M 24.268729,82.581523 c 0,-0.535715 0,-0.535715 -1.071429,-0.535715 -1.071428,0 -1.071428,0 -1.071428,0.535715 0,0.535714 0,0.535714 1.071428,0.535714 1.071429,0 1.071429,0 1.071429,-0.535714 z m 4.285714,0 c 0,-0.535715 0,-0.535715 -1.071429,-0.535715 -1.071428,0 -1.071428,0 -1.071428,0.535715 0,0.535714 0,0.535714 1.071428,0.535714 1.071429,0 1.071429,0 1.071429,-0.535714 z m 4.285714,0 c 0,-0.535715 0,-0.535715 -1.071428,-0.535715 -1.071429,0 -1.071429,0 -1.071429,0.535715 0,0.535714 0,0.535714 1.071429,0.535714 1.071428,0 1.071428,0 1.071428,-0.535714 z m 4.285715,0 c 0,-0.535715 0,-0.535715 -1.071429,-0.535715 -1.071428,0 -1.071428,0 -1.071428,0.535715 0,0.535714 0,0.535714 1.071428,0.535714 1.071429,0 1.071429,0 1.071429,-0.535714 z m 4.285714,0 c 0,-0.535715 0,-0.535715 -1.071429,-0.535715 -1.071428,0 -1.071428,0 -1.071428,0.535715 0,0.535714 0,0.535714 1.071428,0.535714 1.071429,0 1.071429,0 1.071429,-0.535714 z m 4.285714,0 c 0,-0.535715 0,-0.535715 -1.071428,-0.535715 -1.071429,0 -1.071429,0 -1.071429,0.535715 0,0.535714 0,0.535714 1.071429,0.535714 1.071428,0 1.071428,0 1.071428,-0.535714 z m 4.285715,0 c 0,-0.535715 0,-0.535715 -1.071429,-0.535715 -1.071429,0 -1.071429,0 -1.071429,0.535715 0,0.535714 0,0.535714 1.071429,0.535714 1.071429,0 1.071429,0 1.071429,-0.535714 z m 4.285714,0 c 0,-0.535715 0,-0.535715 -1.071429,-0.535715 -1.071428,0 -1.071428,0 -1.071428,0.535715 0,0.535714 0,0.535714 1.071428,0.535714 1.071429,0 1.071429,0 1.071429,-0.535714 z m 4.285714,0 c 0,-0.535715 0,-0.535715 -1.071428,-0.535715 -1.071429,0 -1.071429,0 -1.071429,0.535715 0,0.535714 0,0.535714 1.071429,0.535714 1.071428,0 1.071428,0 1.071428,-0.535714 z m 4.285714,0 c 0,-0.535715 0,-0.535715 -1.071428,-0.535715 -1.071429,0 -1.071429,0 -1.071429,0.535715 0,0.535714 0,0.535714 1.071429,0.535714 1.071428,0 1.071428,0 1.071428,-0.535714 z m 4.285715,0 0,-0.535715 -1.160715,0 -1.160714,0 0,0.535715 0,0.535714 1.160714,0 1.160715,0 0,-0.535714 z m 4.285714,0 0,-0.535715 -1.160714,0 -1.160715,0 0,0.535715 0,0.535714 1.160715,0 1.160714,0 0,-0.535714 z m 4.285714,0 0,-0.535715 -1.160714,0 -1.160714,0 0,0.535715 0,0.535714 1.160714,0 1.160714,0 0,-0.535714 z m 3.214286,0 c 0,-0.493197 -0.0496,-0.535715 -0.625,-0.535715 -0.575396,0 -0.625,0.04252 -0.625,0.535715 0,0.493196 0.0496,0.535714 0.625,0.535714 0.575396,0 0.625,-0.04252 0.625,-0.535714 z m -56.785714,-2.053572 0,-0.625 -1.071429,0 -1.071429,0 0,0.625 0,0.625 1.071429,0 1.071429,0 0,-0.625 z m 4.285714,0 0,-0.625 -1.071429,0 -1.071428,0 0,0.625 0,0.625 1.071428,0 1.071429,0 0,-0.625 z m 4.285714,0 0,-0.625 -1.071428,0 -1.071429,0 0,0.625 0,0.625 1.071429,0 1.071428,0 0,-0.625 z m 4.285715,0 0,-0.625 -1.071429,0 -1.071429,0 0,0.625 0,0.625 1.071429,0 1.071429,0 0,-0.625 z m 4.285714,0 0,-0.625 -1.071429,0 -1.071428,0 0,0.625 0,0.625 1.071428,0 1.071429,0 0,-0.625 z m 4.285714,0 0,-0.625 -1.071428,0 -1.071429,0 0,0.625 0,0.625 1.071429,0 1.071428,0 0,-0.625 z m 4.285714,0 0,-0.625 -1.071428,0 -1.071429,0 0,0.625 0,0.625 1.071429,0 1.071428,0 0,-0.625 z m 4.285715,0 0,-0.625 -1.071429,0 -1.071428,0 0,0.625 0,0.625 1.071428,0 1.071429,0 0,-0.625 z m 4.285714,0 0,-0.625 -1.071429,0 -1.071428,0 0,0.625 0,0.625 1.071428,0 1.071429,0 0,-0.625 z m 4.285714,0 0,-0.625 -1.071428,0 -1.071429,0 0,0.625 0,0.625 1.071429,0 1.071428,0 0,-0.625 z m 4.285715,0 0,-0.625 -1.160715,0 -1.160714,0 0,0.625 0,0.625 1.160714,0 1.160715,0 0,-0.625 z m 4.285714,0 0,-0.625 -1.160714,0 -1.160715,0 0,0.625 0,0.625 1.160715,0 1.160714,0 0,-0.625 z m 4.285714,0 0,-0.625 -1.160714,0 -1.160714,0 0,0.625 0,0.625 1.160714,0 1.160714,0 0,-0.625 z m 4.285714,0 0,-0.625 -1.160714,0 -1.160714,0 0,0.625 0,0.625 1.160714,0 1.160714,0 0,-0.625 z M 24.268729,78.47438 c 0,-0.535715 0,-0.535715 -1.071429,-0.535715 -1.071428,0 -1.071428,0 -1.071428,0.535715 0,0.535714 0,0.535714 1.071428,0.535714 1.071429,0 1.071429,0 1.071429,-0.535714 z m 4.285714,0 c 0,-0.535715 0,-0.535715 -1.071429,-0.535715 -1.071428,0 -1.071428,0 -1.071428,0.535715 0,0.535714 0,0.535714 1.071428,0.535714 1.071429,0 1.071429,0 1.071429,-0.535714 z m 4.285714,0 c 0,-0.535715 0,-0.535715 -1.071428,-0.535715 -1.071429,0 -1.071429,0 -1.071429,0.535715 0,0.535714 0,0.535714 1.071429,0.535714 1.071428,0 1.071428,0 1.071428,-0.535714 z m 4.285715,0 c 0,-0.535715 0,-0.535715 -1.071429,-0.535715 -1.071428,0 -1.071428,0 -1.071428,0.535715 0,0.535714 0,0.535714 1.071428,0.535714 1.071429,0 1.071429,0 1.071429,-0.535714 z m 4.285714,0 c 0,-0.535715 0,-0.535715 -1.071429,-0.535715 -1.071428,0 -1.071428,0 -1.071428,0.535715 0,0.535714 0,0.535714 1.071428,0.535714 1.071429,0 1.071429,0 1.071429,-0.535714 z m 4.285714,0 c 0,-0.535715 0,-0.535715 -1.071428,-0.535715 -1.071429,0 -1.071429,0 -1.071429,0.535715 0,0.535714 0,0.535714 1.071429,0.535714 1.071428,0 1.071428,0 1.071428,-0.535714 z m 4.285715,0 c 0,-0.535715 0,-0.535715 -1.071429,-0.535715 -1.071429,0 -1.071429,0 -1.071429,0.535715 0,0.535714 0,0.535714 1.071429,0.535714 1.071429,0 1.071429,0 1.071429,-0.535714 z m 4.285714,0 c 0,-0.535715 0,-0.535715 -1.071429,-0.535715 -1.071428,0 -1.071428,0 -1.071428,0.535715 0,0.535714 0,0.535714 1.071428,0.535714 1.071429,0 1.071429,0 1.071429,-0.535714 z m 4.285714,0 c 0,-0.535715 0,-0.535715 -1.071428,-0.535715 -1.071429,0 -1.071429,0 -1.071429,0.535715 0,0.535714 0,0.535714 1.071429,0.535714 1.071428,0 1.071428,0 1.071428,-0.535714 z m 4.285714,0 c 0,-0.535715 0,-0.535715 -1.071428,-0.535715 -1.071429,0 -1.071429,0 -1.071429,0.535715 0,0.535714 0,0.535714 1.071429,0.535714 1.071428,0 1.071428,0 1.071428,-0.535714 z m 4.285715,0 0,-0.535715 -1.160715,0 -1.160714,0 0,0.535715 0,0.535714 1.160714,0 1.160715,0 0,-0.535714 z m 4.285714,0 0,-0.535715 -1.160714,0 -1.160715,0 0,0.535715 0,0.535714 1.160715,0 1.160714,0 0,-0.535714 z m 4.285714,0 0,-0.535715 -1.160714,0 -1.160714,0 0,0.535715 0,0.535714 1.160714,0 1.160714,0 0,-0.535714 z m 3.214286,0 c 0,-0.493197 -0.0496,-0.535715 -0.625,-0.535715 -0.575396,0 -0.625,0.04252 -0.625,0.535715 0,0.493196 0.0496,0.535714 0.625,0.535714 0.575396,0 0.625,-0.04252 0.625,-0.535714 z M 22.125872,76.331523 c 0,-0.535715 0,-0.535715 -1.071429,-0.535715 -1.071429,0 -1.071429,0 -1.071429,0.535715 0,0.535714 0,0.535714 1.071429,0.535714 1.071429,0 1.071429,0 1.071429,-0.535714 z m 4.285714,0 c 0,-0.535715 0,-0.535715 -1.071429,-0.535715 -1.071428,0 -1.071428,0 -1.071428,0.535715 0,0.535714 0,0.535714 1.071428,0.535714 1.071429,0 1.071429,0 1.071429,-0.535714 z m 4.285714,0 c 0,-0.535715 0,-0.535715 -1.071428,-0.535715 -1.071429,0 -1.071429,0 -1.071429,0.535715 0,0.535714 0,0.535714 1.071429,0.535714 1.071428,0 1.071428,0 1.071428,-0.535714 z m 4.285715,0 c 0,-0.535715 0,-0.535715 -1.071429,-0.535715 -1.071429,0 -1.071429,0 -1.071429,0.535715 0,0.535714 0,0.535714 1.071429,0.535714 1.071429,0 1.071429,0 1.071429,-0.535714 z m 4.285714,0 c 0,-0.535715 0,-0.535715 -1.071429,-0.535715 -1.071428,0 -1.071428,0 -1.071428,0.535715 0,0.535714 0,0.535714 1.071428,0.535714 1.071429,0 1.071429,0 1.071429,-0.535714 z m 4.285714,0 c 0,-0.535715 0,-0.535715 -1.071428,-0.535715 -1.071429,0 -1.071429,0 -1.071429,0.535715 0,0.535714 0,0.535714 1.071429,0.535714 1.071428,0 1.071428,0 1.071428,-0.535714 z m 4.285714,0 c 0,-0.535715 0,-0.535715 -1.071428,-0.535715 -1.071429,0 -1.071429,0 -1.071429,0.535715 0,0.535714 0,0.535714 1.071429,0.535714 1.071428,0 1.071428,0 1.071428,-0.535714 z m 4.285715,0 c 0,-0.535715 0,-0.535715 -1.071429,-0.535715 -1.071428,0 -1.071428,0 -1.071428,0.535715 0,0.535714 0,0.535714 1.071428,0.535714 1.071429,0 1.071429,0 1.071429,-0.535714 z m 4.285714,0 c 0,-0.535715 0,-0.535715 -1.071429,-0.535715 -1.071428,0 -1.071428,0 -1.071428,0.535715 0,0.535714 0,0.535714 1.071428,0.535714 1.071429,0 1.071429,0 1.071429,-0.535714 z m 4.285714,0 c 0,-0.535715 0,-0.535715 -1.071428,-0.535715 -1.071429,0 -1.071429,0 -1.071429,0.535715 0,0.535714 0,0.535714 1.071429,0.535714 1.071428,0 1.071428,0 1.071428,-0.535714 z m 4.285715,0 0,-0.535715 -1.160715,0 -1.160714,0 0,0.535715 0,0.535714 1.160714,0 1.160715,0 0,-0.535714 z m 4.285714,0 0,-0.535715 -1.160714,0 -1.160715,0 0,0.535715 0,0.535714 1.160715,0 1.160714,0 0,-0.535714 z m 4.285714,0 0,-0.535715 -1.160714,0 -1.160714,0 0,0.535715 0,0.535714 1.160714,0 1.160714,0 0,-0.535714 z m 4.285714,0 0,-0.535715 -1.160714,0 -1.160714,0 0,0.535715 0,0.535714 1.160714,0 1.160714,0 0,-0.535714 z m -53.571428,-2.053572 0,-0.625 -1.071429,0 -1.071428,0 0,0.625 0,0.625 1.071428,0 1.071429,0 0,-0.625 z m 4.285714,0 0,-0.625 -1.071429,0 -1.071428,0 0,0.625 0,0.625 1.071428,0 1.071429,0 0,-0.625 z m 4.285714,0 0,-0.625 -1.071428,0 -1.071429,0 0,0.625 0,0.625 1.071429,0 1.071428,0 0,-0.625 z m 4.285715,0 0,-0.625 -1.071429,0 -1.071428,0 0,0.625 0,0.625 1.071428,0 1.071429,0 0,-0.625 z m 4.285714,0 0,-0.625 -1.071429,0 -1.071428,0 0,0.625 0,0.625 1.071428,0 1.071429,0 0,-0.625 z m 4.285714,0 0,-0.625 -1.071428,0 -1.071429,0 0,0.625 0,0.625 1.071429,0 1.071428,0 0,-0.625 z m 4.285715,0 0,-0.625 -1.071429,0 -1.071429,0 0,0.625 0,0.625 1.071429,0 1.071429,0 0,-0.625 z m 4.285714,0 0,-0.625 -1.071429,0 -1.071428,0 0,0.625 0,0.625 1.071428,0 1.071429,0 0,-0.625 z m 4.285714,0 0,-0.625 -1.071428,0 -1.071429,0 0,0.625 0,0.625 1.071429,0 1.071428,0 0,-0.625 z m 4.285714,0 0,-0.625 -1.071428,0 -1.071429,0 0,0.625 0,0.625 1.071429,0 1.071428,0 0,-0.625 z m 4.285715,0 0,-0.625 -1.160715,0 -1.160714,0 0,0.625 0,0.625 1.160714,0 1.160715,0 0,-0.625 z m 4.285714,0 0,-0.625 -1.160714,0 -1.160715,0 0,0.625 0,0.625 1.160715,0 1.160714,0 0,-0.625 z m 4.285714,0 0,-0.625 -1.160714,0 -1.160714,0 0,0.625 0,0.625 1.160714,0 1.160714,0 0,-0.625 z m 3.214286,0 c 0,-0.595237 -0.02976,-0.625 -0.625,-0.625 -0.595237,0 -0.625,0.02976 -0.625,0.625 0,0.595238 0.02976,0.625 0.625,0.625 0.595238,0 0.625,-0.02976 0.625,-0.625 z M 22.125872,72.22438 c 0,-0.535715 0,-0.535715 -1.071429,-0.535715 -1.071429,0 -1.071429,0 -1.071429,0.535715 0,0.535714 0,0.535714 1.071429,0.535714 1.071429,0 1.071429,0 1.071429,-0.535714 z m 4.285714,0 c 0,-0.535715 0,-0.535715 -1.071429,-0.535715 -1.071428,0 -1.071428,0 -1.071428,0.535715 0,0.535714 0,0.535714 1.071428,0.535714 1.071429,0 1.071429,0 1.071429,-0.535714 z m 4.285714,0 c 0,-0.535715 0,-0.535715 -1.071428,-0.535715 -1.071429,0 -1.071429,0 -1.071429,0.535715 0,0.535714 0,0.535714 1.071429,0.535714 1.071428,0 1.071428,0 1.071428,-0.535714 z m 4.285715,0 c 0,-0.535715 0,-0.535715 -1.071429,-0.535715 -1.071429,0 -1.071429,0 -1.071429,0.535715 0,0.535714 0,0.535714 1.071429,0.535714 1.071429,0 1.071429,0 1.071429,-0.535714 z m 4.285714,0 c 0,-0.535715 0,-0.535715 -1.071429,-0.535715 -1.071428,0 -1.071428,0 -1.071428,0.535715 0,0.535714 0,0.535714 1.071428,0.535714 1.071429,0 1.071429,0 1.071429,-0.535714 z m 4.285714,0 c 0,-0.535715 0,-0.535715 -1.071428,-0.535715 -1.071429,0 -1.071429,0 -1.071429,0.535715 0,0.535714 0,0.535714 1.071429,0.535714 1.071428,0 1.071428,0 1.071428,-0.535714 z m 4.285714,0 c 0,-0.535715 0,-0.535715 -1.071428,-0.535715 -1.071429,0 -1.071429,0 -1.071429,0.535715 0,0.535714 0,0.535714 1.071429,0.535714 1.071428,0 1.071428,0 1.071428,-0.535714 z m 4.285715,0 c 0,-0.535715 0,-0.535715 -1.071429,-0.535715 -1.071428,0 -1.071428,0 -1.071428,0.535715 0,0.535714 0,0.535714 1.071428,0.535714 1.071429,0 1.071429,0 1.071429,-0.535714 z m 4.285714,0 c 0,-0.535715 0,-0.535715 -1.071429,-0.535715 -1.071428,0 -1.071428,0 -1.071428,0.535715 0,0.535714 0,0.535714 1.071428,0.535714 1.071429,0 1.071429,0 1.071429,-0.535714 z m 4.285714,0 c 0,-0.535715 0,-0.535715 -1.071428,-0.535715 -1.071429,0 -1.071429,0 -1.071429,0.535715 0,0.535714 0,0.535714 1.071429,0.535714 1.071428,0 1.071428,0 1.071428,-0.535714 z m 4.285715,0 0,-0.535715 -1.160715,0 -1.160714,0 0,0.535715 0,0.535714 1.160714,0 1.160715,0 0,-0.535714 z m 4.285714,0 0,-0.535715 -1.160714,0 -1.160715,0 0,0.535715 0,0.535714 1.160715,0 1.160714,0 0,-0.535714 z m 4.285714,0 0,-0.535715 -1.160714,0 -1.160714,0 0,0.535715 0,0.535714 1.160714,0 1.160714,0 0,-0.535714 z m 4.285714,0 0,-0.535715 -1.160714,0 -1.160714,0 0,0.535715 0,0.535714 1.160714,0 1.160714,0 0,-0.535714 z M 24.268729,70.081523 c 0,-0.535715 0,-0.535715 -1.071429,-0.535715 -1.071428,0 -1.071428,0 -1.071428,0.535715 0,0.535714 0,0.535714 1.071428,0.535714 1.071429,0 1.071429,0 1.071429,-0.535714 z m 4.285714,0 c 0,-0.535715 0,-0.535715 -1.071429,-0.535715 -1.071428,0 -1.071428,0 -1.071428,0.535715 0,0.535714 0,0.535714 1.071428,0.535714 1.071429,0 1.071429,0 1.071429,-0.535714 z m 4.285714,0 c 0,-0.535715 0,-0.535715 -1.071428,-0.535715 -1.071429,0 -1.071429,0 -1.071429,0.535715 0,0.535714 0,0.535714 1.071429,0.535714 1.071428,0 1.071428,0 1.071428,-0.535714 z m 4.285715,0 c 0,-0.535715 0,-0.535715 -1.071429,-0.535715 -1.071428,0 -1.071428,0 -1.071428,0.535715 0,0.535714 0,0.535714 1.071428,0.535714 1.071429,0 1.071429,0 1.071429,-0.535714 z m 4.285714,0 c 0,-0.535715 0,-0.535715 -1.071429,-0.535715 -1.071428,0 -1.071428,0 -1.071428,0.535715 0,0.535714 0,0.535714 1.071428,0.535714 1.071429,0 1.071429,0 1.071429,-0.535714 z m 4.285714,0 c 0,-0.535715 0,-0.535715 -1.071428,-0.535715 -1.071429,0 -1.071429,0 -1.071429,0.535715 0,0.535714 0,0.535714 1.071429,0.535714 1.071428,0 1.071428,0 1.071428,-0.535714 z m 4.285715,0 c 0,-0.535715 0,-0.535715 -1.071429,-0.535715 -1.071429,0 -1.071429,0 -1.071429,0.535715 0,0.535714 0,0.535714 1.071429,0.535714 1.071429,0 1.071429,0 1.071429,-0.535714 z m 4.285714,0 c 0,-0.535715 0,-0.535715 -1.071429,-0.535715 -1.071428,0 -1.071428,0 -1.071428,0.535715 0,0.535714 0,0.535714 1.071428,0.535714 1.071429,0 1.071429,0 1.071429,-0.535714 z m 4.285714,0 c 0,-0.535715 0,-0.535715 -1.071428,-0.535715 -1.071429,0 -1.071429,0 -1.071429,0.535715 0,0.535714 0,0.535714 1.071429,0.535714 1.071428,0 1.071428,0 1.071428,-0.535714 z m 4.285714,0 c 0,-0.535715 0,-0.535715 -1.071428,-0.535715 -1.071429,0 -1.071429,0 -1.071429,0.535715 0,0.535714 0,0.535714 1.071429,0.535714 1.071428,0 1.071428,0 1.071428,-0.535714 z m 4.285715,0 0,-0.535715 -1.160715,0 -1.160714,0 0,0.535715 0,0.535714 1.160714,0 1.160715,0 0,-0.535714 z m 4.285714,0 0,-0.535715 -1.160714,0 -1.160715,0 0,0.535715 0,0.535714 1.160715,0 1.160714,0 0,-0.535714 z m 4.285714,0 0,-0.535715 -1.160714,0 -1.160714,0 0,0.535715 0,0.535714 1.160714,0 1.160714,0 0,-0.535714 z m 3.214286,0 c 0,-0.493197 -0.0496,-0.535715 -0.625,-0.535715 -0.575396,0 -0.625,0.04252 -0.625,0.535715 0,0.493196 0.0496,0.535714 0.625,0.535714 0.575396,0 0.625,-0.04252 0.625,-0.535714 z M 22.125872,68.117237 c 0,-0.535715 0,-0.535715 -1.071429,-0.535715 -1.071429,0 -1.071429,0 -1.071429,0.535715 0,0.535714 0,0.535714 1.071429,0.535714 1.071429,0 1.071429,0 1.071429,-0.535714 z m 4.285714,0 c 0,-0.535715 0,-0.535715 -1.071429,-0.535715 -1.071428,0 -1.071428,0 -1.071428,0.535715 0,0.535714 0,0.535714 1.071428,0.535714 1.071429,0 1.071429,0 1.071429,-0.535714 z m 4.285714,0 c 0,-0.535715 0,-0.535715 -1.071428,-0.535715 -1.071429,0 -1.071429,0 -1.071429,0.535715 0,0.535714 0,0.535714 1.071429,0.535714 1.071428,0 1.071428,0 1.071428,-0.535714 z m 4.285715,0 c 0,-0.535715 0,-0.535715 -1.071429,-0.535715 -1.071429,0 -1.071429,0 -1.071429,0.535715 0,0.535714 0,0.535714 1.071429,0.535714 1.071429,0 1.071429,0 1.071429,-0.535714 z m 4.285714,0 c 0,-0.535715 0,-0.535715 -1.071429,-0.535715 -1.071428,0 -1.071428,0 -1.071428,0.535715 0,0.535714 0,0.535714 1.071428,0.535714 1.071429,0 1.071429,0 1.071429,-0.535714 z m 4.285714,0 c 0,-0.535715 0,-0.535715 -1.071428,-0.535715 -1.071429,0 -1.071429,0 -1.071429,0.535715 0,0.535714 0,0.535714 1.071429,0.535714 1.071428,0 1.071428,0 1.071428,-0.535714 z m 4.285714,0 c 0,-0.535715 0,-0.535715 -1.071428,-0.535715 -1.071429,0 -1.071429,0 -1.071429,0.535715 0,0.535714 0,0.535714 1.071429,0.535714 1.071428,0 1.071428,0 1.071428,-0.535714 z m 4.285715,0 c 0,-0.535715 0,-0.535715 -1.071429,-0.535715 -1.071428,0 -1.071428,0 -1.071428,0.535715 0,0.535714 0,0.535714 1.071428,0.535714 1.071429,0 1.071429,0 1.071429,-0.535714 z m 4.285714,0 c 0,-0.535715 0,-0.535715 -1.071429,-0.535715 -1.071428,0 -1.071428,0 -1.071428,0.535715 0,0.535714 0,0.535714 1.071428,0.535714 1.071429,0 1.071429,0 1.071429,-0.535714 z m 4.285714,0 c 0,-0.535715 0,-0.535715 -1.071428,-0.535715 -1.071429,0 -1.071429,0 -1.071429,0.535715 0,0.535714 0,0.535714 1.071429,0.535714 1.071428,0 1.071428,0 1.071428,-0.535714 z m 4.285715,0 0,-0.535715 -1.160715,0 -1.160714,0 0,0.535715 0,0.535714 1.160714,0 1.160715,0 0,-0.535714 z m 4.285714,0 0,-0.535715 -1.160714,0 -1.160715,0 0,0.535715 0,0.535714 1.160715,0 1.160714,0 0,-0.535714 z m 4.285714,0 0,-0.535715 -1.160714,0 -1.160714,0 0,0.535715 0,0.535714 1.160714,0 1.160714,0 0,-0.535714 z m 4.285714,0 0,-0.535715 -1.160714,0 -1.160714,0 0,0.535715 0,0.535714 1.160714,0 1.160714,0 0,-0.535714 z M 24.268729,65.97438 c 0,-0.535715 0,-0.535715 -1.071429,-0.535715 -1.071428,0 -1.071428,0 -1.071428,0.535715 0,0.535714 0,0.535714 1.071428,0.535714 1.071429,0 1.071429,0 1.071429,-0.535714 z m 4.285714,0 c 0,-0.535715 0,-0.535715 -1.071429,-0.535715 -1.071428,0 -1.071428,0 -1.071428,0.535715 0,0.535714 0,0.535714 1.071428,0.535714 1.071429,0 1.071429,0 1.071429,-0.535714 z m 4.285714,0 c 0,-0.535715 0,-0.535715 -1.071428,-0.535715 -1.071429,0 -1.071429,0 -1.071429,0.535715 0,0.535714 0,0.535714 1.071429,0.535714 1.071428,0 1.071428,0 1.071428,-0.535714 z m 4.285715,0 c 0,-0.535715 0,-0.535715 -1.071429,-0.535715 -1.071428,0 -1.071428,0 -1.071428,0.535715 0,0.535714 0,0.535714 1.071428,0.535714 1.071429,0 1.071429,0 1.071429,-0.535714 z m 4.285714,0 c 0,-0.535715 0,-0.535715 -1.071429,-0.535715 -1.071428,0 -1.071428,0 -1.071428,0.535715 0,0.535714 0,0.535714 1.071428,0.535714 1.071429,0 1.071429,0 1.071429,-0.535714 z m 4.285714,0 c 0,-0.535715 0,-0.535715 -1.071428,-0.535715 -1.071429,0 -1.071429,0 -1.071429,0.535715 0,0.535714 0,0.535714 1.071429,0.535714 1.071428,0 1.071428,0 1.071428,-0.535714 z m 4.285715,0 c 0,-0.535715 0,-0.535715 -1.071429,-0.535715 -1.071429,0 -1.071429,0 -1.071429,0.535715 0,0.535714 0,0.535714 1.071429,0.535714 1.071429,0 1.071429,0 1.071429,-0.535714 z m 4.285714,0 c 0,-0.535715 0,-0.535715 -1.071429,-0.535715 -1.071428,0 -1.071428,0 -1.071428,0.535715 0,0.535714 0,0.535714 1.071428,0.535714 1.071429,0 1.071429,0 1.071429,-0.535714 z m 4.285714,0 c 0,-0.535715 0,-0.535715 -1.071428,-0.535715 -1.071429,0 -1.071429,0 -1.071429,0.535715 0,0.535714 0,0.535714 1.071429,0.535714 1.071428,0 1.071428,0 1.071428,-0.535714 z m 4.285714,0 c 0,-0.535715 0,-0.535715 -1.071428,-0.535715 -1.071429,0 -1.071429,0 -1.071429,0.535715 0,0.535714 0,0.535714 1.071429,0.535714 1.071428,0 1.071428,0 1.071428,-0.535714 z m 4.285715,0 0,-0.535715 -1.160715,0 -1.160714,0 0,0.535715 0,0.535714 1.160714,0 1.160715,0 0,-0.535714 z m 4.285714,0 0,-0.535715 -1.160714,0 -1.160715,0 0,0.535715 0,0.535714 1.160715,0 1.160714,0 0,-0.535714 z m 4.285714,0 0,-0.535715 -1.160714,0 -1.160714,0 0,0.535715 0,0.535714 1.160714,0 1.160714,0 0,-0.535714 z m 3.214286,0 c 0,-0.493197 -0.0496,-0.535715 -0.625,-0.535715 -0.575396,0 -0.625,0.04252 -0.625,0.535715 0,0.493196 0.0496,0.535714 0.625,0.535714 0.575396,0 0.625,-0.04252 0.625,-0.535714 z m -56.785714,-2.053572 0,-0.625 -1.071429,0 -1.071429,0 0,0.625 0,0.625 1.071429,0 1.071429,0 0,-0.625 z m 4.285714,0 0,-0.625 -1.071429,0 -1.071428,0 0,0.625 0,0.625 1.071428,0 1.071429,0 0,-0.625 z m 4.285714,0 0,-0.625 -1.071428,0 -1.071429,0 0,0.625 0,0.625 1.071429,0 1.071428,0 0,-0.625 z m 4.285715,0 0,-0.625 -1.071429,0 -1.071429,0 0,0.625 0,0.625 1.071429,0 1.071429,0 0,-0.625 z m 4.285714,0 0,-0.625 -1.071429,0 -1.071428,0 0,0.625 0,0.625 1.071428,0 1.071429,0 0,-0.625 z m 4.285714,0 0,-0.625 -1.071428,0 -1.071429,0 0,0.625 0,0.625 1.071429,0 1.071428,0 0,-0.625 z m 4.285714,0 0,-0.625 -1.071428,0 -1.071429,0 0,0.625 0,0.625 1.071429,0 1.071428,0 0,-0.625 z m 4.285715,0 0,-0.625 -1.071429,0 -1.071428,0 0,0.625 0,0.625 1.071428,0 1.071429,0 0,-0.625 z m 4.285714,0 0,-0.625 -1.071429,0 -1.071428,0 0,0.625 0,0.625 1.071428,0 1.071429,0 0,-0.625 z m 4.285714,0 0,-0.625 -1.071428,0 -1.071429,0 0,0.625 0,0.625 1.071429,0 1.071428,0 0,-0.625 z m 4.285715,0 0,-0.625 -1.160715,0 -1.160714,0 0,0.625 0,0.625 1.160714,0 1.160715,0 0,-0.625 z m 4.285714,0 0,-0.625 -1.160714,0 -1.160715,0 0,0.625 0,0.625 1.160715,0 1.160714,0 0,-0.625 z m 4.285714,0 0,-0.625 -1.160714,0 -1.160714,0 0,0.625 0,0.625 1.160714,0 1.160714,0 0,-0.625 z m 4.285714,0 0,-0.625 -1.160714,0 -1.160714,0 0,0.625 0,0.625 1.160714,0 1.160714,0 0,-0.625 z M 24.268729,61.867237 c 0,-0.535715 0,-0.535715 -1.071429,-0.535715 -1.071428,0 -1.071428,0 -1.071428,0.535715 0,0.535714 0,0.535714 1.071428,0.535714 1.071429,0 1.071429,0 1.071429,-0.535714 z m 4.285714,0 c 0,-0.535715 0,-0.535715 -1.071429,-0.535715 -1.071428,0 -1.071428,0 -1.071428,0.535715 0,0.535714 0,0.535714 1.071428,0.535714 1.071429,0 1.071429,0 1.071429,-0.535714 z m 4.285714,0 c 0,-0.535715 0,-0.535715 -1.071428,-0.535715 -1.071429,0 -1.071429,0 -1.071429,0.535715 0,0.535714 0,0.535714 1.071429,0.535714 1.071428,0 1.071428,0 1.071428,-0.535714 z m 4.285715,0 c 0,-0.535715 0,-0.535715 -1.071429,-0.535715 -1.071428,0 -1.071428,0 -1.071428,0.535715 0,0.535714 0,0.535714 1.071428,0.535714 1.071429,0 1.071429,0 1.071429,-0.535714 z m 4.285714,0 c 0,-0.535715 0,-0.535715 -1.071429,-0.535715 -1.071428,0 -1.071428,0 -1.071428,0.535715 0,0.535714 0,0.535714 1.071428,0.535714 1.071429,0 1.071429,0 1.071429,-0.535714 z m 4.285714,0 c 0,-0.535715 0,-0.535715 -1.071428,-0.535715 -1.071429,0 -1.071429,0 -1.071429,0.535715 0,0.535714 0,0.535714 1.071429,0.535714 1.071428,0 1.071428,0 1.071428,-0.535714 z m 4.285715,0 c 0,-0.535715 0,-0.535715 -1.071429,-0.535715 -1.071429,0 -1.071429,0 -1.071429,0.535715 0,0.535714 0,0.535714 1.071429,0.535714 1.071429,0 1.071429,0 1.071429,-0.535714 z m 4.285714,0 c 0,-0.535715 0,-0.535715 -1.071429,-0.535715 -1.071428,0 -1.071428,0 -1.071428,0.535715 0,0.535714 0,0.535714 1.071428,0.535714 1.071429,0 1.071429,0 1.071429,-0.535714 z m 4.285714,0 c 0,-0.535715 0,-0.535715 -1.071428,-0.535715 -1.071429,0 -1.071429,0 -1.071429,0.535715 0,0.535714 0,0.535714 1.071429,0.535714 1.071428,0 1.071428,0 1.071428,-0.535714 z m 4.285714,0 c 0,-0.535715 0,-0.535715 -1.071428,-0.535715 -1.071429,0 -1.071429,0 -1.071429,0.535715 0,0.535714 0,0.535714 1.071429,0.535714 1.071428,0 1.071428,0 1.071428,-0.535714 z m 4.285715,0 0,-0.535715 -1.160715,0 -1.160714,0 0,0.535715 0,0.535714 1.160714,0 1.160715,0 0,-0.535714 z m 4.285714,0 0,-0.535715 -1.160714,0 -1.160715,0 0,0.535715 0,0.535714 1.160715,0 1.160714,0 0,-0.535714 z m 4.285714,0 0,-0.535715 -1.160714,0 -1.160714,0 0,0.535715 0,0.535714 1.160714,0 1.160714,0 0,-0.535714 z m 3.214286,0 c 0,-0.493197 -0.0496,-0.535715 -0.625,-0.535715 -0.575396,0 -0.625,0.04252 -0.625,0.535715 0,0.493196 0.0496,0.535714 0.625,0.535714 0.575396,0 0.625,-0.04252 0.625,-0.535714 z M 22.125872,59.72438 c 0,-0.535715 0,-0.535715 -1.071429,-0.535715 -1.071429,0 -1.071429,0 -1.071429,0.535715 0,0.535714 0,0.535714 1.071429,0.535714 1.071429,0 1.071429,0 1.071429,-0.535714 z m 4.285714,0 c 0,-0.535715 0,-0.535715 -1.071429,-0.535715 -1.071428,0 -1.071428,0 -1.071428,0.535715 0,0.535714 0,0.535714 1.071428,0.535714 1.071429,0 1.071429,0 1.071429,-0.535714 z m 4.285714,0 c 0,-0.535715 0,-0.535715 -1.071428,-0.535715 -1.071429,0 -1.071429,0 -1.071429,0.535715 0,0.535714 0,0.535714 1.071429,0.535714 1.071428,0 1.071428,0 1.071428,-0.535714 z m 4.285715,0 c 0,-0.535715 0,-0.535715 -1.071429,-0.535715 -1.071429,0 -1.071429,0 -1.071429,0.535715 0,0.535714 0,0.535714 1.071429,0.535714 1.071429,0 1.071429,0 1.071429,-0.535714 z m 4.285714,0 c 0,-0.535715 0,-0.535715 -1.071429,-0.535715 -1.071428,0 -1.071428,0 -1.071428,0.535715 0,0.535714 0,0.535714 1.071428,0.535714 1.071429,0 1.071429,0 1.071429,-0.535714 z m 4.285714,0 c 0,-0.535715 0,-0.535715 -1.071428,-0.535715 -1.071429,0 -1.071429,0 -1.071429,0.535715 0,0.535714 0,0.535714 1.071429,0.535714 1.071428,0 1.071428,0 1.071428,-0.535714 z m 4.285714,0 c 0,-0.535715 0,-0.535715 -1.071428,-0.535715 -1.071429,0 -1.071429,0 -1.071429,0.535715 0,0.535714 0,0.535714 1.071429,0.535714 1.071428,0 1.071428,0 1.071428,-0.535714 z m 4.285715,0 c 0,-0.535715 0,-0.535715 -1.071429,-0.535715 -1.071428,0 -1.071428,0 -1.071428,0.535715 0,0.535714 0,0.535714 1.071428,0.535714 1.071429,0 1.071429,0 1.071429,-0.535714 z m 4.285714,0 c 0,-0.535715 0,-0.535715 -1.071429,-0.535715 -1.071428,0 -1.071428,0 -1.071428,0.535715 0,0.535714 0,0.535714 1.071428,0.535714 1.071429,0 1.071429,0 1.071429,-0.535714 z m 4.285714,0 c 0,-0.535715 0,-0.535715 -1.071428,-0.535715 -1.071429,0 -1.071429,0 -1.071429,0.535715 0,0.535714 0,0.535714 1.071429,0.535714 1.071428,0 1.071428,0 1.071428,-0.535714 z m 4.285715,0 0,-0.535715 -1.160715,0 -1.160714,0 0,0.535715 0,0.535714 1.160714,0 1.160715,0 0,-0.535714 z m 4.285714,0 0,-0.535715 -1.160714,0 -1.160715,0 0,0.535715 0,0.535714 1.160715,0 1.160714,0 0,-0.535714 z m 4.285714,0 0,-0.535715 -1.160714,0 -1.160714,0 0,0.535715 0,0.535714 1.160714,0 1.160714,0 0,-0.535714 z m 4.285714,0 0,-0.535715 -1.160714,0 -1.160714,0 0,0.535715 0,0.535714 1.160714,0 1.160714,0 0,-0.535714 z m -53.571428,-2.053572 0,-0.625 -1.071429,0 -1.071428,0 0,0.625 0,0.625 1.071428,0 1.071429,0 0,-0.625 z m 4.285714,0 0,-0.625 -1.071429,0 -1.071428,0 0,0.625 0,0.625 1.071428,0 1.071429,0 0,-0.625 z m 4.285714,0 0,-0.625 -1.071428,0 -1.071429,0 0,0.625 0,0.625 1.071429,0 1.071428,0 0,-0.625 z m 4.285715,0 0,-0.625 -1.071429,0 -1.071428,0 0,0.625 0,0.625 1.071428,0 1.071429,0 0,-0.625 z m 4.285714,0 0,-0.625 -1.071429,0 -1.071428,0 0,0.625 0,0.625 1.071428,0 1.071429,0 0,-0.625 z m 4.285714,0 0,-0.625 -1.071428,0 -1.071429,0 0,0.625 0,0.625 1.071429,0 1.071428,0 0,-0.625 z m 4.285715,0 0,-0.625 -1.071429,0 -1.071429,0 0,0.625 0,0.625 1.071429,0 1.071429,0 0,-0.625 z m 4.285714,0 0,-0.625 -1.071429,0 -1.071428,0 0,0.625 0,0.625 1.071428,0 1.071429,0 0,-0.625 z m 4.285714,0 0,-0.625 -1.071428,0 -1.071429,0 0,0.625 0,0.625 1.071429,0 1.071428,0 0,-0.625 z m 4.285714,0 0,-0.625 -1.071428,0 -1.071429,0 0,0.625 0,0.625 1.071429,0 1.071428,0 0,-0.625 z m 4.285715,0 0,-0.625 -1.160715,0 -1.160714,0 0,0.625 0,0.625 1.160714,0 1.160715,0 0,-0.625 z m 4.285714,0 0,-0.625 -1.160714,0 -1.160715,0 0,0.625 0,0.625 1.160715,0 1.160714,0 0,-0.625 z m 4.285714,0 0,-0.625 -1.160714,0 -1.160714,0 0,0.625 0,0.625 1.160714,0 1.160714,0 0,-0.625 z m 3.214286,0 c 0,-0.595237 -0.02976,-0.625 -0.625,-0.625 -0.595237,0 -0.625,0.02976 -0.625,0.625 0,0.595238 0.02976,0.625 0.625,0.625 0.595238,0 0.625,-0.02976 0.625,-0.625 z M 22.125872,55.617237 c 0,-0.535715 0,-0.535715 -1.071429,-0.535715 -1.071429,0 -1.071429,0 -1.071429,0.535715 0,0.535714 0,0.535714 1.071429,0.535714 1.071429,0 1.071429,0 1.071429,-0.535714 z m 4.285714,0 c 0,-0.535715 0,-0.535715 -1.071429,-0.535715 -1.071428,0 -1.071428,0 -1.071428,0.535715 0,0.535714 0,0.535714 1.071428,0.535714 1.071429,0 1.071429,0 1.071429,-0.535714 z m 4.285714,0 c 0,-0.535715 0,-0.535715 -1.071428,-0.535715 -1.071429,0 -1.071429,0 -1.071429,0.535715 0,0.535714 0,0.535714 1.071429,0.535714 1.071428,0 1.071428,0 1.071428,-0.535714 z m 4.285715,0 c 0,-0.535715 0,-0.535715 -1.071429,-0.535715 -1.071429,0 -1.071429,0 -1.071429,0.535715 0,0.535714 0,0.535714 1.071429,0.535714 1.071429,0 1.071429,0 1.071429,-0.535714 z m 4.285714,0 c 0,-0.535715 0,-0.535715 -1.071429,-0.535715 -1.071428,0 -1.071428,0 -1.071428,0.535715 0,0.535714 0,0.535714 1.071428,0.535714 1.071429,0 1.071429,0 1.071429,-0.535714 z m 4.285714,0 c 0,-0.535715 0,-0.535715 -1.071428,-0.535715 -1.071429,0 -1.071429,0 -1.071429,0.535715 0,0.535714 0,0.535714 1.071429,0.535714 1.071428,0 1.071428,0 1.071428,-0.535714 z m 4.285714,0 c 0,-0.535715 0,-0.535715 -1.071428,-0.535715 -1.071429,0 -1.071429,0 -1.071429,0.535715 0,0.535714 0,0.535714 1.071429,0.535714 1.071428,0 1.071428,0 1.071428,-0.535714 z m 4.285715,0 c 0,-0.535715 0,-0.535715 -1.071429,-0.535715 -1.071428,0 -1.071428,0 -1.071428,0.535715 0,0.535714 0,0.535714 1.071428,0.535714 1.071429,0 1.071429,0 1.071429,-0.535714 z m 4.285714,0 c 0,-0.535715 0,-0.535715 -1.071429,-0.535715 -1.071428,0 -1.071428,0 -1.071428,0.535715 0,0.535714 0,0.535714 1.071428,0.535714 1.071429,0 1.071429,0 1.071429,-0.535714 z m 4.285714,0 c 0,-0.535715 0,-0.535715 -1.071428,-0.535715 -1.071429,0 -1.071429,0 -1.071429,0.535715 0,0.535714 0,0.535714 1.071429,0.535714 1.071428,0 1.071428,0 1.071428,-0.535714 z m 4.285715,0 0,-0.535715 -1.160715,0 -1.160714,0 0,0.535715 0,0.535714 1.160714,0 1.160715,0 0,-0.535714 z m 4.285714,0 0,-0.535715 -1.160714,0 -1.160715,0 0,0.535715 0,0.535714 1.160715,0 1.160714,0 0,-0.535714 z m 4.285714,0 0,-0.535715 -1.160714,0 -1.160714,0 0,0.535715 0,0.535714 1.160714,0 1.160714,0 0,-0.535714 z m 4.285714,0 0,-0.535715 -1.160714,0 -1.160714,0 0,0.535715 0,0.535714 1.160714,0 1.160714,0 0,-0.535714 z M 24.268729,53.47438 c 0,-0.535715 0,-0.535715 -1.071429,-0.535715 -1.071428,0 -1.071428,0 -1.071428,0.535715 0,0.535714 0,0.535714 1.071428,0.535714 1.071429,0 1.071429,0 1.071429,-0.535714 z m 4.285714,0 c 0,-0.535715 0,-0.535715 -1.071429,-0.535715 -1.071428,0 -1.071428,0 -1.071428,0.535715 0,0.535714 0,0.535714 1.071428,0.535714 1.071429,0 1.071429,0 1.071429,-0.535714 z m 4.285714,0 c 0,-0.535715 0,-0.535715 -1.071428,-0.535715 -1.071429,0 -1.071429,0 -1.071429,0.535715 0,0.535714 0,0.535714 1.071429,0.535714 1.071428,0 1.071428,0 1.071428,-0.535714 z m 4.285715,0 c 0,-0.535715 0,-0.535715 -1.071429,-0.535715 -1.071428,0 -1.071428,0 -1.071428,0.535715 0,0.535714 0,0.535714 1.071428,0.535714 1.071429,0 1.071429,0 1.071429,-0.535714 z m 4.285714,0 c 0,-0.535715 0,-0.535715 -1.071429,-0.535715 -1.071428,0 -1.071428,0 -1.071428,0.535715 0,0.535714 0,0.535714 1.071428,0.535714 1.071429,0 1.071429,0 1.071429,-0.535714 z m 4.285714,0 c 0,-0.535715 0,-0.535715 -1.071428,-0.535715 -1.071429,0 -1.071429,0 -1.071429,0.535715 0,0.535714 0,0.535714 1.071429,0.535714 1.071428,0 1.071428,0 1.071428,-0.535714 z m 4.285715,0 c 0,-0.535715 0,-0.535715 -1.071429,-0.535715 -1.071429,0 -1.071429,0 -1.071429,0.535715 0,0.535714 0,0.535714 1.071429,0.535714 1.071429,0 1.071429,0 1.071429,-0.535714 z m 4.285714,0 c 0,-0.535715 0,-0.535715 -1.071429,-0.535715 -1.071428,0 -1.071428,0 -1.071428,0.535715 0,0.535714 0,0.535714 1.071428,0.535714 1.071429,0 1.071429,0 1.071429,-0.535714 z m 4.285714,0 c 0,-0.535715 0,-0.535715 -1.071428,-0.535715 -1.071429,0 -1.071429,0 -1.071429,0.535715 0,0.535714 0,0.535714 1.071429,0.535714 1.071428,0 1.071428,0 1.071428,-0.535714 z m 4.285714,0 c 0,-0.535715 0,-0.535715 -1.071428,-0.535715 -1.071429,0 -1.071429,0 -1.071429,0.535715 0,0.535714 0,0.535714 1.071429,0.535714 1.071428,0 1.071428,0 1.071428,-0.535714 z m 4.285715,0 0,-0.535715 -1.160715,0 -1.160714,0 0,0.535715 0,0.535714 1.160714,0 1.160715,0 0,-0.535714 z m 4.285714,0 0,-0.535715 -1.160714,0 -1.160715,0 0,0.535715 0,0.535714 1.160715,0 1.160714,0 0,-0.535714 z m 4.285714,0 0,-0.535715 -1.160714,0 -1.160714,0 0,0.535715 0,0.535714 1.160714,0 1.160714,0 0,-0.535714 z m 3.214286,0 c 0,-0.493197 -0.0496,-0.535715 -0.625,-0.535715 -0.575396,0 -0.625,0.04252 -0.625,0.535715 0,0.493196 0.0496,0.535714 0.625,0.535714 0.575396,0 0.625,-0.04252 0.625,-0.535714 z M 22.125872,51.510094 c 0,-0.535714 0,-0.535714 -1.071429,-0.535714 -1.071429,0 -1.071429,0 -1.071429,0.535714 0,0.535714 0,0.535714 1.071429,0.535714 1.071429,0 1.071429,0 1.071429,-0.535714 z m 4.285714,0 c 0,-0.535714 0,-0.535714 -1.071429,-0.535714 -1.071428,0 -1.071428,0 -1.071428,0.535714 0,0.535714 0,0.535714 1.071428,0.535714 1.071429,0 1.071429,0 1.071429,-0.535714 z m 4.285714,0 c 0,-0.535714 0,-0.535714 -1.071428,-0.535714 -1.071429,0 -1.071429,0 -1.071429,0.535714 0,0.535714 0,0.535714 1.071429,0.535714 1.071428,0 1.071428,0 1.071428,-0.535714 z m 4.285715,0 c 0,-0.535714 0,-0.535714 -1.071429,-0.535714 -1.071429,0 -1.071429,0 -1.071429,0.535714 0,0.535714 0,0.535714 1.071429,0.535714 1.071429,0 1.071429,0 1.071429,-0.535714 z m 4.285714,0 c 0,-0.535714 0,-0.535714 -1.071429,-0.535714 -1.071428,0 -1.071428,0 -1.071428,0.535714 0,0.535714 0,0.535714 1.071428,0.535714 1.071429,0 1.071429,0 1.071429,-0.535714 z m 4.285714,0 c 0,-0.535714 0,-0.535714 -1.071428,-0.535714 -1.071429,0 -1.071429,0 -1.071429,0.535714 0,0.535714 0,0.535714 1.071429,0.535714 1.071428,0 1.071428,0 1.071428,-0.535714 z m 4.285714,0 c 0,-0.535714 0,-0.535714 -1.071428,-0.535714 -1.071429,0 -1.071429,0 -1.071429,0.535714 0,0.535714 0,0.535714 1.071429,0.535714 1.071428,0 1.071428,0 1.071428,-0.535714 z m 4.285715,0 c 0,-0.535714 0,-0.535714 -1.071429,-0.535714 -1.071428,0 -1.071428,0 -1.071428,0.535714 0,0.535714 0,0.535714 1.071428,0.535714 1.071429,0 1.071429,0 1.071429,-0.535714 z m 4.285714,0 c 0,-0.535714 0,-0.535714 -1.071429,-0.535714 -1.071428,0 -1.071428,0 -1.071428,0.535714 0,0.535714 0,0.535714 1.071428,0.535714 1.071429,0 1.071429,0 1.071429,-0.535714 z m 4.285714,0 c 0,-0.535714 0,-0.535714 -1.071428,-0.535714 -1.071429,0 -1.071429,0 -1.071429,0.535714 0,0.535714 0,0.535714 1.071429,0.535714 1.071428,0 1.071428,0 1.071428,-0.535714 z m 4.285715,0 0,-0.535714 -1.160715,0 -1.160714,0 0,0.535714 0,0.535714 1.160714,0 1.160715,0 0,-0.535714 z m 4.285714,0 0,-0.535714 -1.160714,0 -1.160715,0 0,0.535714 0,0.535714 1.160715,0 1.160714,0 0,-0.535714 z m 4.285714,0 0,-0.535714 -1.160714,0 -1.160714,0 0,0.535714 0,0.535714 1.160714,0 1.160714,0 0,-0.535714 z m 4.285714,0 0,-0.535714 -1.160714,0 -1.160714,0 0,0.535714 0,0.535714 1.160714,0 1.160714,0 0,-0.535714 z M 24.268729,49.367237 c 0,-0.535715 0,-0.535715 -1.071429,-0.535715 -1.071428,0 -1.071428,0 -1.071428,0.535715 0,0.535714 0,0.535714 1.071428,0.535714 1.071429,0 1.071429,0 1.071429,-0.535714 z m 4.285714,0 c 0,-0.535715 0,-0.535715 -1.071429,-0.535715 -1.071428,0 -1.071428,0 -1.071428,0.535715 0,0.535714 0,0.535714 1.071428,0.535714 1.071429,0 1.071429,0 1.071429,-0.535714 z m 4.285714,0 c 0,-0.535715 0,-0.535715 -1.071428,-0.535715 -1.071429,0 -1.071429,0 -1.071429,0.535715 0,0.535714 0,0.535714 1.071429,0.535714 1.071428,0 1.071428,0 1.071428,-0.535714 z m 4.285715,0 c 0,-0.535715 0,-0.535715 -1.071429,-0.535715 -1.071428,0 -1.071428,0 -1.071428,0.535715 0,0.535714 0,0.535714 1.071428,0.535714 1.071429,0 1.071429,0 1.071429,-0.535714 z m 4.285714,0 c 0,-0.535715 0,-0.535715 -1.071429,-0.535715 -1.071428,0 -1.071428,0 -1.071428,0.535715 0,0.535714 0,0.535714 1.071428,0.535714 1.071429,0 1.071429,0 1.071429,-0.535714 z m 4.285714,0 c 0,-0.535715 0,-0.535715 -1.071428,-0.535715 -1.071429,0 -1.071429,0 -1.071429,0.535715 0,0.535714 0,0.535714 1.071429,0.535714 1.071428,0 1.071428,0 1.071428,-0.535714 z m 4.285715,0 c 0,-0.535715 0,-0.535715 -1.071429,-0.535715 -1.071429,0 -1.071429,0 -1.071429,0.535715 0,0.535714 0,0.535714 1.071429,0.535714 1.071429,0 1.071429,0 1.071429,-0.535714 z m 4.285714,0 c 0,-0.535715 0,-0.535715 -1.071429,-0.535715 -1.071428,0 -1.071428,0 -1.071428,0.535715 0,0.535714 0,0.535714 1.071428,0.535714 1.071429,0 1.071429,0 1.071429,-0.535714 z m 4.285714,0 c 0,-0.535715 0,-0.535715 -1.071428,-0.535715 -1.071429,0 -1.071429,0 -1.071429,0.535715 0,0.535714 0,0.535714 1.071429,0.535714 1.071428,0 1.071428,0 1.071428,-0.535714 z m 4.285714,0 c 0,-0.535715 0,-0.535715 -1.071428,-0.535715 -1.071429,0 -1.071429,0 -1.071429,0.535715 0,0.535714 0,0.535714 1.071429,0.535714 1.071428,0 1.071428,0 1.071428,-0.535714 z m 4.285715,0 0,-0.535715 -1.160715,0 -1.160714,0 0,0.535715 0,0.535714 1.160714,0 1.160715,0 0,-0.535714 z m 4.285714,0 0,-0.535715 -1.160714,0 -1.160715,0 0,0.535715 0,0.535714 1.160715,0 1.160714,0 0,-0.535714 z m 4.285714,0 0,-0.535715 -1.160714,0 -1.160714,0 0,0.535715 0,0.535714 1.160714,0 1.160714,0 0,-0.535714 z m 3.214286,0 c 0,-0.493197 -0.0496,-0.535715 -0.625,-0.535715 -0.575396,0 -0.625,0.04252 -0.625,0.535715 0,0.493196 0.0496,0.535714 0.625,0.535714 0.575396,0 0.625,-0.04252 0.625,-0.535714 z m -56.785714,-2.053572 0,-0.625 -1.071429,0 -1.071429,0 0,0.625 0,0.625 1.071429,0 1.071429,0 0,-0.625 z m 4.285714,0 0,-0.625 -1.071429,0 -1.071428,0 0,0.625 0,0.625 1.071428,0 1.071429,0 0,-0.625 z m 4.285714,0 0,-0.625 -1.071428,0 -1.071429,0 0,0.625 0,0.625 1.071429,0 1.071428,0 0,-0.625 z m 4.285715,0 0,-0.625 -1.071429,0 -1.071429,0 0,0.625 0,0.625 1.071429,0 1.071429,0 0,-0.625 z m 4.285714,0 0,-0.625 -1.071429,0 -1.071428,0 0,0.625 0,0.625 1.071428,0 1.071429,0 0,-0.625 z m 4.285714,0 0,-0.625 -1.071428,0 -1.071429,0 0,0.625 0,0.625 1.071429,0 1.071428,0 0,-0.625 z m 4.285714,0 0,-0.625 -1.071428,0 -1.071429,0 0,0.625 0,0.625 1.071429,0 1.071428,0 0,-0.625 z m 4.285715,0 0,-0.625 -1.071429,0 -1.071428,0 0,0.625 0,0.625 1.071428,0 1.071429,0 0,-0.625 z m 4.285714,0 0,-0.625 -1.071429,0 -1.071428,0 0,0.625 0,0.625 1.071428,0 1.071429,0 0,-0.625 z m 4.285714,0 0,-0.625 -1.071428,0 -1.071429,0 0,0.625 0,0.625 1.071429,0 1.071428,0 0,-0.625 z m 4.285715,0 0,-0.625 -1.160715,0 -1.160714,0 0,0.625 0,0.625 1.160714,0 1.160715,0 0,-0.625 z m 4.285714,0 0,-0.625 -1.160714,0 -1.160715,0 0,0.625 0,0.625 1.160715,0 1.160714,0 0,-0.625 z m 4.285714,0 0,-0.625 -1.160714,0 -1.160714,0 0,0.625 0,0.625 1.160714,0 1.160714,0 0,-0.625 z m 4.285714,0 0,-0.625 -1.160714,0 -1.160714,0 0,0.625 0,0.625 1.160714,0 1.160714,0 0,-0.625 z M 24.268729,45.260094 c 0,-0.535714 0,-0.535714 -1.071429,-0.535714 -1.071428,0 -1.071428,0 -1.071428,0.535714 0,0.535714 0,0.535714 1.071428,0.535714 1.071429,0 1.071429,0 1.071429,-0.535714 z m 4.285714,0 c 0,-0.535714 0,-0.535714 -1.071429,-0.535714 -1.071428,0 -1.071428,0 -1.071428,0.535714 0,0.535714 0,0.535714 1.071428,0.535714 1.071429,0 1.071429,0 1.071429,-0.535714 z m 4.285714,0 c 0,-0.535714 0,-0.535714 -1.071428,-0.535714 -1.071429,0 -1.071429,0 -1.071429,0.535714 0,0.535714 0,0.535714 1.071429,0.535714 1.071428,0 1.071428,0 1.071428,-0.535714 z m 4.285715,0 c 0,-0.535714 0,-0.535714 -1.071429,-0.535714 -1.071428,0 -1.071428,0 -1.071428,0.535714 0,0.535714 0,0.535714 1.071428,0.535714 1.071429,0 1.071429,0 1.071429,-0.535714 z m 4.285714,0 c 0,-0.535714 0,-0.535714 -1.071429,-0.535714 -1.071428,0 -1.071428,0 -1.071428,0.535714 0,0.535714 0,0.535714 1.071428,0.535714 1.071429,0 1.071429,0 1.071429,-0.535714 z m 4.285714,0 c 0,-0.535714 0,-0.535714 -1.071428,-0.535714 -1.071429,0 -1.071429,0 -1.071429,0.535714 0,0.535714 0,0.535714 1.071429,0.535714 1.071428,0 1.071428,0 1.071428,-0.535714 z m 4.285715,0 c 0,-0.535714 0,-0.535714 -1.071429,-0.535714 -1.071429,0 -1.071429,0 -1.071429,0.535714 0,0.535714 0,0.535714 1.071429,0.535714 1.071429,0 1.071429,0 1.071429,-0.535714 z m 4.285714,0 c 0,-0.535714 0,-0.535714 -1.071429,-0.535714 -1.071428,0 -1.071428,0 -1.071428,0.535714 0,0.535714 0,0.535714 1.071428,0.535714 1.071429,0 1.071429,0 1.071429,-0.535714 z m 4.285714,0 c 0,-0.535714 0,-0.535714 -1.071428,-0.535714 -1.071429,0 -1.071429,0 -1.071429,0.535714 0,0.535714 0,0.535714 1.071429,0.535714 1.071428,0 1.071428,0 1.071428,-0.535714 z m 4.285714,0 c 0,-0.535714 0,-0.535714 -1.071428,-0.535714 -1.071429,0 -1.071429,0 -1.071429,0.535714 0,0.535714 0,0.535714 1.071429,0.535714 1.071428,0 1.071428,0 1.071428,-0.535714 z m 4.285715,0 0,-0.535714 -1.160715,0 -1.160714,0 0,0.535714 0,0.535714 1.160714,0 1.160715,0 0,-0.535714 z m 4.285714,0 0,-0.535714 -1.160714,0 -1.160715,0 0,0.535714 0,0.535714 1.160715,0 1.160714,0 0,-0.535714 z m 4.285714,0 0,-0.535714 -1.160714,0 -1.160714,0 0,0.535714 0,0.535714 1.160714,0 1.160714,0 0,-0.535714 z m 3.214286,0 c 0,-0.493197 -0.0496,-0.535714 -0.625,-0.535714 -0.575396,0 -0.625,0.04252 -0.625,0.535714 0,0.493196 0.0496,0.535714 0.625,0.535714 0.575396,0 0.625,-0.04252 0.625,-0.535714 z M 22.125872,43.117237 c 0,-0.535715 0,-0.535715 -1.071429,-0.535715 -1.071429,0 -1.071429,0 -1.071429,0.535715 0,0.535714 0,0.535714 1.071429,0.535714 1.071429,0 1.071429,0 1.071429,-0.535714 z m 4.285714,0 c 0,-0.535715 0,-0.535715 -1.071429,-0.535715 -1.071428,0 -1.071428,0 -1.071428,0.535715 0,0.535714 0,0.535714 1.071428,0.535714 1.071429,0 1.071429,0 1.071429,-0.535714 z m 4.285714,0 c 0,-0.535715 0,-0.535715 -1.071428,-0.535715 -1.071429,0 -1.071429,0 -1.071429,0.535715 0,0.535714 0,0.535714 1.071429,0.535714 1.071428,0 1.071428,0 1.071428,-0.535714 z m 4.285715,0 c 0,-0.535715 0,-0.535715 -1.071429,-0.535715 -1.071429,0 -1.071429,0 -1.071429,0.535715 0,0.535714 0,0.535714 1.071429,0.535714 1.071429,0 1.071429,0 1.071429,-0.535714 z m 4.285714,0 c 0,-0.535715 0,-0.535715 -1.071429,-0.535715 -1.071428,0 -1.071428,0 -1.071428,0.535715 0,0.535714 0,0.535714 1.071428,0.535714 1.071429,0 1.071429,0 1.071429,-0.535714 z m 4.285714,0 c 0,-0.535715 0,-0.535715 -1.071428,-0.535715 -1.071429,0 -1.071429,0 -1.071429,0.535715 0,0.535714 0,0.535714 1.071429,0.535714 1.071428,0 1.071428,0 1.071428,-0.535714 z m 4.285714,0 c 0,-0.535715 0,-0.535715 -1.071428,-0.535715 -1.071429,0 -1.071429,0 -1.071429,0.535715 0,0.535714 0,0.535714 1.071429,0.535714 1.071428,0 1.071428,0 1.071428,-0.535714 z m 4.285715,0 c 0,-0.535715 0,-0.535715 -1.071429,-0.535715 -1.071428,0 -1.071428,0 -1.071428,0.535715 0,0.535714 0,0.535714 1.071428,0.535714 1.071429,0 1.071429,0 1.071429,-0.535714 z m 4.285714,0 c 0,-0.535715 0,-0.535715 -1.071429,-0.535715 -1.071428,0 -1.071428,0 -1.071428,0.535715 0,0.535714 0,0.535714 1.071428,0.535714 1.071429,0 1.071429,0 1.071429,-0.535714 z m 4.285714,0 c 0,-0.535715 0,-0.535715 -1.071428,-0.535715 -1.071429,0 -1.071429,0 -1.071429,0.535715 0,0.535714 0,0.535714 1.071429,0.535714 1.071428,0 1.071428,0 1.071428,-0.535714 z m 4.285715,0 0,-0.535715 -1.160715,0 -1.160714,0 0,0.535715 0,0.535714 1.160714,0 1.160715,0 0,-0.535714 z m 4.285714,0 0,-0.535715 -1.160714,0 -1.160715,0 0,0.535715 0,0.535714 1.160715,0 1.160714,0 0,-0.535714 z m 4.285714,0 0,-0.535715 -1.160714,0 -1.160714,0 0,0.535715 0,0.535714 1.160714,0 1.160714,0 0,-0.535714 z m 4.285714,0 0,-0.535715 -1.160714,0 -1.160714,0 0,0.535715 0,0.535714 1.160714,0 1.160714,0 0,-0.535714 z m -53.571428,-2.053572 0,-0.625 -1.071429,0 -1.071428,0 0,0.625 0,0.625 1.071428,0 1.071429,0 0,-0.625 z m 4.285714,0 0,-0.625 -1.071429,0 -1.071428,0 0,0.625 0,0.625 1.071428,0 1.071429,0 0,-0.625 z m 4.285714,0 0,-0.625 -1.071428,0 -1.071429,0 0,0.625 0,0.625 1.071429,0 1.071428,0 0,-0.625 z m 4.285715,0 0,-0.625 -1.071429,0 -1.071428,0 0,0.625 0,0.625 1.071428,0 1.071429,0 0,-0.625 z m 4.285714,0 0,-0.625 -1.071429,0 -1.071428,0 0,0.625 0,0.625 1.071428,0 1.071429,0 0,-0.625 z m 4.285714,0 0,-0.625 -1.071428,0 -1.071429,0 0,0.625 0,0.625 1.071429,0 1.071428,0 0,-0.625 z m 4.285715,0 0,-0.625 -1.071429,0 -1.071429,0 0,0.625 0,0.625 1.071429,0 1.071429,0 0,-0.625 z m 4.285714,0 0,-0.625 -1.071429,0 -1.071428,0 0,0.625 0,0.625 1.071428,0 1.071429,0 0,-0.625 z m 4.285714,0 0,-0.625 -1.071428,0 -1.071429,0 0,0.625 0,0.625 1.071429,0 1.071428,0 0,-0.625 z m 4.285714,0 0,-0.625 -1.071428,0 -1.071429,0 0,0.625 0,0.625 1.071429,0 1.071428,0 0,-0.625 z m 4.285715,0 0,-0.625 -1.160715,0 -1.160714,0 0,0.625 0,0.625 1.160714,0 1.160715,0 0,-0.625 z m 4.285714,0 0,-0.625 -1.160714,0 -1.160715,0 0,0.625 0,0.625 1.160715,0 1.160714,0 0,-0.625 z m 4.285714,0 0,-0.625 -1.160714,0 -1.160714,0 0,0.625 0,0.625 1.160714,0 1.160714,0 0,-0.625 z m 3.214286,0 c 0,-0.595237 -0.02976,-0.625 -0.625,-0.625 -0.595237,0 -0.625,0.02976 -0.625,0.625 0,0.595238 0.02976,0.625 0.625,0.625 0.595238,0 0.625,-0.02976 0.625,-0.625 z M 22.125872,39.010094 c 0,-0.535714 0,-0.535714 -1.071429,-0.535714 -1.071429,0 -1.071429,0 -1.071429,0.535714 0,0.535714 0,0.535714 1.071429,0.535714 1.071429,0 1.071429,0 1.071429,-0.535714 z m 4.285714,0 c 0,-0.535714 0,-0.535714 -1.071429,-0.535714 -1.071428,0 -1.071428,0 -1.071428,0.535714 0,0.535714 0,0.535714 1.071428,0.535714 1.071429,0 1.071429,0 1.071429,-0.535714 z m 4.285714,0 c 0,-0.535714 0,-0.535714 -1.071428,-0.535714 -1.071429,0 -1.071429,0 -1.071429,0.535714 0,0.535714 0,0.535714 1.071429,0.535714 1.071428,0 1.071428,0 1.071428,-0.535714 z m 4.285715,0 c 0,-0.535714 0,-0.535714 -1.071429,-0.535714 -1.071429,0 -1.071429,0 -1.071429,0.535714 0,0.535714 0,0.535714 1.071429,0.535714 1.071429,0 1.071429,0 1.071429,-0.535714 z m 4.285714,0 c 0,-0.535714 0,-0.535714 -1.071429,-0.535714 -1.071428,0 -1.071428,0 -1.071428,0.535714 0,0.535714 0,0.535714 1.071428,0.535714 1.071429,0 1.071429,0 1.071429,-0.535714 z m 4.285714,0 c 0,-0.535714 0,-0.535714 -1.071428,-0.535714 -1.071429,0 -1.071429,0 -1.071429,0.535714 0,0.535714 0,0.535714 1.071429,0.535714 1.071428,0 1.071428,0 1.071428,-0.535714 z m 4.285714,0 c 0,-0.535714 0,-0.535714 -1.071428,-0.535714 -1.071429,0 -1.071429,0 -1.071429,0.535714 0,0.535714 0,0.535714 1.071429,0.535714 1.071428,0 1.071428,0 1.071428,-0.535714 z m 4.285715,0 c 0,-0.535714 0,-0.535714 -1.071429,-0.535714 -1.071428,0 -1.071428,0 -1.071428,0.535714 0,0.535714 0,0.535714 1.071428,0.535714 1.071429,0 1.071429,0 1.071429,-0.535714 z m 4.285714,0 c 0,-0.535714 0,-0.535714 -1.071429,-0.535714 -1.071428,0 -1.071428,0 -1.071428,0.535714 0,0.535714 0,0.535714 1.071428,0.535714 1.071429,0 1.071429,0 1.071429,-0.535714 z m 4.285714,0 c 0,-0.535714 0,-0.535714 -1.071428,-0.535714 -1.071429,0 -1.071429,0 -1.071429,0.535714 0,0.535714 0,0.535714 1.071429,0.535714 1.071428,0 1.071428,0 1.071428,-0.535714 z m 4.285715,0 0,-0.535714 -1.160715,0 -1.160714,0 0,0.535714 0,0.535714 1.160714,0 1.160715,0 0,-0.535714 z m 4.285714,0 0,-0.535714 -1.160714,0 -1.160715,0 0,0.535714 0,0.535714 1.160715,0 1.160714,0 0,-0.535714 z m 4.285714,0 0,-0.535714 -1.160714,0 -1.160714,0 0,0.535714 0,0.535714 1.160714,0 1.160714,0 0,-0.535714 z m 4.285714,0 0,-0.535714 -1.160714,0 -1.160714,0 0,0.535714 0,0.535714 1.160714,0 1.160714,0 0,-0.535714 z m -53.571428,-2.053572 0,-0.625 -1.071429,0 -1.071428,0 0,0.625 0,0.625 1.071428,0 1.071429,0 0,-0.625 z m 4.285714,0 0,-0.625 -1.071429,0 -1.071428,0 0,0.625 0,0.625 1.071428,0 1.071429,0 0,-0.625 z m 4.285714,0 0,-0.625 -1.071428,0 -1.071429,0 0,0.625 0,0.625 1.071429,0 1.071428,0 0,-0.625 z m 4.285715,0 0,-0.625 -1.071429,0 -1.071428,0 0,0.625 0,0.625 1.071428,0 1.071429,0 0,-0.625 z m 4.285714,0 0,-0.625 -1.071429,0 -1.071428,0 0,0.625 0,0.625 1.071428,0 1.071429,0 0,-0.625 z m 4.285714,0 0,-0.625 -1.071428,0 -1.071429,0 0,0.625 0,0.625 1.071429,0 1.071428,0 0,-0.625 z m 4.285715,0 0,-0.625 -1.071429,0 -1.071429,0 0,0.625 0,0.625 1.071429,0 1.071429,0 0,-0.625 z m 4.285714,0 0,-0.625 -1.071429,0 -1.071428,0 0,0.625 0,0.625 1.071428,0 1.071429,0 0,-0.625 z m 4.285714,0 0,-0.625 -1.071428,0 -1.071429,0 0,0.625 0,0.625 1.071429,0 1.071428,0 0,-0.625 z m 4.285714,0 0,-0.625 -1.071428,0 -1.071429,0 0,0.625 0,0.625 1.071429,0 1.071428,0 0,-0.625 z m 4.285715,0 0,-0.625 -1.160715,0 -1.160714,0 0,0.625 0,0.625 1.160714,0 1.160715,0 0,-0.625 z m 4.285714,0 0,-0.625 -1.160714,0 -1.160715,0 0,0.625 0,0.625 1.160715,0 1.160714,0 0,-0.625 z m 4.285714,0 0,-0.625 -1.160714,0 -1.160714,0 0,0.625 0,0.625 1.160714,0 1.160714,0 0,-0.625 z m 3.214286,0 c 0,-0.595237 -0.02976,-0.625 -0.625,-0.625 -0.595237,0 -0.625,0.02976 -0.625,0.625 0,0.595238 0.02976,0.625 0.625,0.625 0.595238,0 0.625,-0.02976 0.625,-0.625 z M 22.125872,34.902951 c 0,-0.535714 0,-0.535714 -1.071429,-0.535714 -1.071429,0 -1.071429,0 -1.071429,0.535714 0,0.535714 0,0.535714 1.071429,0.535714 1.071429,0 1.071429,0 1.071429,-0.535714 z m 4.285714,0 c 0,-0.535714 0,-0.535714 -1.071429,-0.535714 -1.071428,0 -1.071428,0 -1.071428,0.535714 0,0.535714 0,0.535714 1.071428,0.535714 1.071429,0 1.071429,0 1.071429,-0.535714 z m 4.285714,0 c 0,-0.535714 0,-0.535714 -1.071428,-0.535714 -1.071429,0 -1.071429,0 -1.071429,0.535714 0,0.535714 0,0.535714 1.071429,0.535714 1.071428,0 1.071428,0 1.071428,-0.535714 z m 4.285715,0 c 0,-0.535714 0,-0.535714 -1.071429,-0.535714 -1.071429,0 -1.071429,0 -1.071429,0.535714 0,0.535714 0,0.535714 1.071429,0.535714 1.071429,0 1.071429,0 1.071429,-0.535714 z m 4.285714,0 c 0,-0.535714 0,-0.535714 -1.071429,-0.535714 -1.071428,0 -1.071428,0 -1.071428,0.535714 0,0.535714 0,0.535714 1.071428,0.535714 1.071429,0 1.071429,0 1.071429,-0.535714 z m 4.285714,0 c 0,-0.535714 0,-0.535714 -1.071428,-0.535714 -1.071429,0 -1.071429,0 -1.071429,0.535714 0,0.535714 0,0.535714 1.071429,0.535714 1.071428,0 1.071428,0 1.071428,-0.535714 z m 4.285714,0 c 0,-0.535714 0,-0.535714 -1.071428,-0.535714 -1.071429,0 -1.071429,0 -1.071429,0.535714 0,0.535714 0,0.535714 1.071429,0.535714 1.071428,0 1.071428,0 1.071428,-0.535714 z m 4.285715,0 c 0,-0.535714 0,-0.535714 -1.071429,-0.535714 -1.071428,0 -1.071428,0 -1.071428,0.535714 0,0.535714 0,0.535714 1.071428,0.535714 1.071429,0 1.071429,0 1.071429,-0.535714 z m 4.285714,0 c 0,-0.535714 0,-0.535714 -1.071429,-0.535714 -1.071428,0 -1.071428,0 -1.071428,0.535714 0,0.535714 0,0.535714 1.071428,0.535714 1.071429,0 1.071429,0 1.071429,-0.535714 z m 4.285714,0 c 0,-0.535714 0,-0.535714 -1.071428,-0.535714 -1.071429,0 -1.071429,0 -1.071429,0.535714 0,0.535714 0,0.535714 1.071429,0.535714 1.071428,0 1.071428,0 1.071428,-0.535714 z m 4.285715,0 0,-0.535714 -1.160715,0 -1.160714,0 0,0.535714 0,0.535714 1.160714,0 1.160715,0 0,-0.535714 z m 4.285714,0 0,-0.535714 -1.160714,0 -1.160715,0 0,0.535714 0,0.535714 1.160715,0 1.160714,0 0,-0.535714 z m 4.285714,0 0,-0.535714 -1.160714,0 -1.160714,0 0,0.535714 0,0.535714 1.160714,0 1.160714,0 0,-0.535714 z m 4.285714,0 0,-0.535714 -1.160714,0 -1.160714,0 0,0.535714 0,0.535714 1.160714,0 1.160714,0 0,-0.535714 z M 24.268729,32.760094 c 0,-0.535714 0,-0.535714 -1.071429,-0.535714 -1.071428,0 -1.071428,0 -1.071428,0.535714 0,0.535714 0,0.535714 1.071428,0.535714 1.071429,0 1.071429,0 1.071429,-0.535714 z m 4.285714,0 c 0,-0.535714 0,-0.535714 -1.071429,-0.535714 -1.071428,0 -1.071428,0 -1.071428,0.535714 0,0.535714 0,0.535714 1.071428,0.535714 1.071429,0 1.071429,0 1.071429,-0.535714 z m 4.285714,0 c 0,-0.535714 0,-0.535714 -1.071428,-0.535714 -1.071429,0 -1.071429,0 -1.071429,0.535714 0,0.535714 0,0.535714 1.071429,0.535714 1.071428,0 1.071428,0 1.071428,-0.535714 z m 4.285715,0 c 0,-0.535714 0,-0.535714 -1.071429,-0.535714 -1.071428,0 -1.071428,0 -1.071428,0.535714 0,0.535714 0,0.535714 1.071428,0.535714 1.071429,0 1.071429,0 1.071429,-0.535714 z m 4.285714,0 c 0,-0.535714 0,-0.535714 -1.071429,-0.535714 -1.071428,0 -1.071428,0 -1.071428,0.535714 0,0.535714 0,0.535714 1.071428,0.535714 1.071429,0 1.071429,0 1.071429,-0.535714 z m 4.285714,0 c 0,-0.535714 0,-0.535714 -1.071428,-0.535714 -1.071429,0 -1.071429,0 -1.071429,0.535714 0,0.535714 0,0.535714 1.071429,0.535714 1.071428,0 1.071428,0 1.071428,-0.535714 z m 4.285715,0 c 0,-0.535714 0,-0.535714 -1.071429,-0.535714 -1.071429,0 -1.071429,0 -1.071429,0.535714 0,0.535714 0,0.535714 1.071429,0.535714 1.071429,0 1.071429,0 1.071429,-0.535714 z m 4.285714,0 c 0,-0.535714 0,-0.535714 -1.071429,-0.535714 -1.071428,0 -1.071428,0 -1.071428,0.535714 0,0.535714 0,0.535714 1.071428,0.535714 1.071429,0 1.071429,0 1.071429,-0.535714 z m 4.285714,0 c 0,-0.535714 0,-0.535714 -1.071428,-0.535714 -1.071429,0 -1.071429,0 -1.071429,0.535714 0,0.535714 0,0.535714 1.071429,0.535714 1.071428,0 1.071428,0 1.071428,-0.535714 z m 4.285714,0 c 0,-0.535714 0,-0.535714 -1.071428,-0.535714 -1.071429,0 -1.071429,0 -1.071429,0.535714 0,0.535714 0,0.535714 1.071429,0.535714 1.071428,0 1.071428,0 1.071428,-0.535714 z m 4.285715,0 0,-0.535714 -1.160715,0 -1.160714,0 0,0.535714 0,0.535714 1.160714,0 1.160715,0 0,-0.535714 z m 4.285714,0 0,-0.535714 -1.160714,0 -1.160715,0 0,0.535714 0,0.535714 1.160715,0 1.160714,0 0,-0.535714 z m 4.285714,0 0,-0.535714 -1.160714,0 -1.160714,0 0,0.535714 0,0.535714 1.160714,0 1.160714,0 0,-0.535714 z m 3.214286,0 c 0,-0.493197 -0.0496,-0.535714 -0.625,-0.535714 -0.575396,0 -0.625,0.04252 -0.625,0.535714 0,0.493196 0.0496,0.535714 0.625,0.535714 0.575396,0 0.625,-0.04252 0.625,-0.535714 z m -56.785714,-2.053572 0,-0.625 -1.071429,0 -1.071429,0 0,0.625 0,0.625 1.071429,0 1.071429,0 0,-0.625 z m 4.285714,0 0,-0.625 -1.071429,0 -1.071428,0 0,0.625 0,0.625 1.071428,0 1.071429,0 0,-0.625 z m 4.285714,0 0,-0.625 -1.071428,0 -1.071429,0 0,0.625 0,0.625 1.071429,0 1.071428,0 0,-0.625 z m 4.285715,0 0,-0.625 -1.071429,0 -1.071429,0 0,0.625 0,0.625 1.071429,0 1.071429,0 0,-0.625 z m 4.285714,0 0,-0.625 -1.071429,0 -1.071428,0 0,0.625 0,0.625 1.071428,0 1.071429,0 0,-0.625 z m 4.285714,0 0,-0.625 -1.071428,0 -1.071429,0 0,0.625 0,0.625 1.071429,0 1.071428,0 0,-0.625 z m 4.285714,0 0,-0.625 -1.071428,0 -1.071429,0 0,0.625 0,0.625 1.071429,0 1.071428,0 0,-0.625 z m 4.285715,0 0,-0.625 -1.071429,0 -1.071428,0 0,0.625 0,0.625 1.071428,0 1.071429,0 0,-0.625 z m 4.285714,0 0,-0.625 -1.071429,0 -1.071428,0 0,0.625 0,0.625 1.071428,0 1.071429,0 0,-0.625 z m 4.285714,0 0,-0.625 -1.071428,0 -1.071429,0 0,0.625 0,0.625 1.071429,0 1.071428,0 0,-0.625 z m 4.285715,0 0,-0.625 -1.160715,0 -1.160714,0 0,0.625 0,0.625 1.160714,0 1.160715,0 0,-0.625 z m 4.285714,0 0,-0.625 -1.160714,0 -1.160715,0 0,0.625 0,0.625 1.160715,0 1.160714,0 0,-0.625 z m 4.285714,0 0,-0.625 -1.160714,0 -1.160714,0 0,0.625 0,0.625 1.160714,0 1.160714,0 0,-0.625 z m 4.285714,0 0,-0.625 -1.160714,0 -1.160714,0 0,0.625 0,0.625 1.160714,0 1.160714,0 0,-0.625 z M 24.268729,28.652951 c 0,-0.535714 0,-0.535714 -1.071429,-0.535714 -1.071428,0 -1.071428,0 -1.071428,0.535714 0,0.535714 0,0.535714 1.071428,0.535714 1.071429,0 1.071429,0 1.071429,-0.535714 z m 4.285714,0 c 0,-0.535714 0,-0.535714 -1.071429,-0.535714 -1.071428,0 -1.071428,0 -1.071428,0.535714 0,0.535714 0,0.535714 1.071428,0.535714 1.071429,0 1.071429,0 1.071429,-0.535714 z m 4.285714,0 c 0,-0.535714 0,-0.535714 -1.071428,-0.535714 -1.071429,0 -1.071429,0 -1.071429,0.535714 0,0.535714 0,0.535714 1.071429,0.535714 1.071428,0 1.071428,0 1.071428,-0.535714 z m 4.285715,0 c 0,-0.535714 0,-0.535714 -1.071429,-0.535714 -1.071428,0 -1.071428,0 -1.071428,0.535714 0,0.535714 0,0.535714 1.071428,0.535714 1.071429,0 1.071429,0 1.071429,-0.535714 z m 4.285714,0 c 0,-0.535714 0,-0.535714 -1.071429,-0.535714 -1.071428,0 -1.071428,0 -1.071428,0.535714 0,0.535714 0,0.535714 1.071428,0.535714 1.071429,0 1.071429,0 1.071429,-0.535714 z m 4.285714,0 c 0,-0.535714 0,-0.535714 -1.071428,-0.535714 -1.071429,0 -1.071429,0 -1.071429,0.535714 0,0.535714 0,0.535714 1.071429,0.535714 1.071428,0 1.071428,0 1.071428,-0.535714 z m 4.285715,0 c 0,-0.535714 0,-0.535714 -1.071429,-0.535714 -1.071429,0 -1.071429,0 -1.071429,0.535714 0,0.535714 0,0.535714 1.071429,0.535714 1.071429,0 1.071429,0 1.071429,-0.535714 z m 4.285714,0 c 0,-0.535714 0,-0.535714 -1.071429,-0.535714 -1.071428,0 -1.071428,0 -1.071428,0.535714 0,0.535714 0,0.535714 1.071428,0.535714 1.071429,0 1.071429,0 1.071429,-0.535714 z m 4.285714,0 c 0,-0.535714 0,-0.535714 -1.071428,-0.535714 -1.071429,0 -1.071429,0 -1.071429,0.535714 0,0.535714 0,0.535714 1.071429,0.535714 1.071428,0 1.071428,0 1.071428,-0.535714 z m 4.285714,0 c 0,-0.535714 0,-0.535714 -1.071428,-0.535714 -1.071429,0 -1.071429,0 -1.071429,0.535714 0,0.535714 0,0.535714 1.071429,0.535714 1.071428,0 1.071428,0 1.071428,-0.535714 z m 4.285715,0 0,-0.535714 -1.160715,0 -1.160714,0 0,0.535714 0,0.535714 1.160714,0 1.160715,0 0,-0.535714 z m 4.285714,0 0,-0.535714 -1.160714,0 -1.160715,0 0,0.535714 0,0.535714 1.160715,0 1.160714,0 0,-0.535714 z m 4.285714,0 0,-0.535714 -1.160714,0 -1.160714,0 0,0.535714 0,0.535714 1.160714,0 1.160714,0 0,-0.535714 z m 3.214286,0 c 0,-0.493197 -0.0496,-0.535714 -0.625,-0.535714 -0.575396,0 -0.625,0.04252 -0.625,0.535714 0,0.493197 0.0496,0.535714 0.625,0.535714 0.575396,0 0.625,-0.04252 0.625,-0.535714 z M 22.125872,26.510094 c 0,-0.535714 0,-0.535714 -1.071429,-0.535714 -1.071429,0 -1.071429,0 -1.071429,0.535714 0,0.535714 0,0.535714 1.071429,0.535714 1.071429,0 1.071429,0 1.071429,-0.535714 z m 4.285714,0 c 0,-0.535714 0,-0.535714 -1.071429,-0.535714 -1.071428,0 -1.071428,0 -1.071428,0.535714 0,0.535714 0,0.535714 1.071428,0.535714 1.071429,0 1.071429,0 1.071429,-0.535714 z m 4.285714,0 c 0,-0.535714 0,-0.535714 -1.071428,-0.535714 -1.071429,0 -1.071429,0 -1.071429,0.535714 0,0.535714 0,0.535714 1.071429,0.535714 1.071428,0 1.071428,0 1.071428,-0.535714 z m 4.285715,0 c 0,-0.535714 0,-0.535714 -1.071429,-0.535714 -1.071429,0 -1.071429,0 -1.071429,0.535714 0,0.535714 0,0.535714 1.071429,0.535714 1.071429,0 1.071429,0 1.071429,-0.535714 z m 4.285714,0 c 0,-0.535714 0,-0.535714 -1.071429,-0.535714 -1.071428,0 -1.071428,0 -1.071428,0.535714 0,0.535714 0,0.535714 1.071428,0.535714 1.071429,0 1.071429,0 1.071429,-0.535714 z m 4.285714,0 c 0,-0.535714 0,-0.535714 -1.071428,-0.535714 -1.071429,0 -1.071429,0 -1.071429,0.535714 0,0.535714 0,0.535714 1.071429,0.535714 1.071428,0 1.071428,0 1.071428,-0.535714 z m 4.285714,0 c 0,-0.535714 0,-0.535714 -1.071428,-0.535714 -1.071429,0 -1.071429,0 -1.071429,0.535714 0,0.535714 0,0.535714 1.071429,0.535714 1.071428,0 1.071428,0 1.071428,-0.535714 z m 4.285715,0 c 0,-0.535714 0,-0.535714 -1.071429,-0.535714 -1.071428,0 -1.071428,0 -1.071428,0.535714 0,0.535714 0,0.535714 1.071428,0.535714 1.071429,0 1.071429,0 1.071429,-0.535714 z m 4.285714,0 c 0,-0.535714 0,-0.535714 -1.071429,-0.535714 -1.071428,0 -1.071428,0 -1.071428,0.535714 0,0.535714 0,0.535714 1.071428,0.535714 1.071429,0 1.071429,0 1.071429,-0.535714 z m 4.285714,0 c 0,-0.535714 0,-0.535714 -1.071428,-0.535714 -1.071429,0 -1.071429,0 -1.071429,0.535714 0,0.535714 0,0.535714 1.071429,0.535714 1.071428,0 1.071428,0 1.071428,-0.535714 z m 4.285715,0 0,-0.535714 -1.160715,0 -1.160714,0 0,0.535714 0,0.535714 1.160714,0 1.160715,0 0,-0.535714 z m 4.285714,0 0,-0.535714 -1.160714,0 -1.160715,0 0,0.535714 0,0.535714 1.160715,0 1.160714,0 0,-0.535714 z m 4.285714,0 0,-0.535714 -1.160714,0 -1.160714,0 0,0.535714 0,0.535714 1.160714,0 1.160714,0 0,-0.535714 z m 4.285714,0 0,-0.535714 -1.160714,0 -1.160714,0 0,0.535714 0,0.535714 1.160714,0 1.160714,0 0,-0.535714 z M 24.268729,24.545808 c 0,-0.535714 0,-0.535714 -1.071429,-0.535714 -1.071428,0 -1.071428,0 -1.071428,0.535714 0,0.535714 0,0.535714 1.071428,0.535714 1.071429,0 1.071429,0 1.071429,-0.535714 z m 4.285714,0 c 0,-0.535714 0,-0.535714 -1.071429,-0.535714 -1.071428,0 -1.071428,0 -1.071428,0.535714 0,0.535714 0,0.535714 1.071428,0.535714 1.071429,0 1.071429,0 1.071429,-0.535714 z m 4.285714,0 c 0,-0.535714 0,-0.535714 -1.071428,-0.535714 -1.071429,0 -1.071429,0 -1.071429,0.535714 0,0.535714 0,0.535714 1.071429,0.535714 1.071428,0 1.071428,0 1.071428,-0.535714 z m 4.285715,0 c 0,-0.535714 0,-0.535714 -1.071429,-0.535714 -1.071428,0 -1.071428,0 -1.071428,0.535714 0,0.535714 0,0.535714 1.071428,0.535714 1.071429,0 1.071429,0 1.071429,-0.535714 z m 4.285714,0 c 0,-0.535714 0,-0.535714 -1.071429,-0.535714 -1.071428,0 -1.071428,0 -1.071428,0.535714 0,0.535714 0,0.535714 1.071428,0.535714 1.071429,0 1.071429,0 1.071429,-0.535714 z m 4.285714,0 c 0,-0.535714 0,-0.535714 -1.071428,-0.535714 -1.071429,0 -1.071429,0 -1.071429,0.535714 0,0.535714 0,0.535714 1.071429,0.535714 1.071428,0 1.071428,0 1.071428,-0.535714 z m 4.285715,0 c 0,-0.535714 0,-0.535714 -1.071429,-0.535714 -1.071429,0 -1.071429,0 -1.071429,0.535714 0,0.535714 0,0.535714 1.071429,0.535714 1.071429,0 1.071429,0 1.071429,-0.535714 z m 4.285714,0 c 0,-0.535714 0,-0.535714 -1.071429,-0.535714 -1.071428,0 -1.071428,0 -1.071428,0.535714 0,0.535714 0,0.535714 1.071428,0.535714 1.071429,0 1.071429,0 1.071429,-0.535714 z m 4.285714,0 c 0,-0.535714 0,-0.535714 -1.071428,-0.535714 -1.071429,0 -1.071429,0 -1.071429,0.535714 0,0.535714 0,0.535714 1.071429,0.535714 1.071428,0 1.071428,0 1.071428,-0.535714 z m 4.285714,0 c 0,-0.535714 0,-0.535714 -1.071428,-0.535714 -1.071429,0 -1.071429,0 -1.071429,0.535714 0,0.535714 0,0.535714 1.071429,0.535714 1.071428,0 1.071428,0 1.071428,-0.535714 z m 4.285715,0 0,-0.535714 -1.160715,0 -1.160714,0 0,0.535714 0,0.535714 1.160714,0 1.160715,0 0,-0.535714 z m 4.285714,0 0,-0.535714 -1.160714,0 -1.160715,0 0,0.535714 0,0.535714 1.160715,0 1.160714,0 0,-0.535714 z m 4.285714,0 0,-0.535714 -1.160714,0 -1.160714,0 0,0.535714 0,0.535714 1.160714,0 1.160714,0 0,-0.535714 z m 3.214286,0 c 0,-0.493197 -0.0496,-0.535714 -0.625,-0.535714 -0.575396,0 -0.625,0.04252 -0.625,0.535714 0,0.493197 0.0496,0.535714 0.625,0.535714 0.575396,0 0.625,-0.04252 0.625,-0.535714 z M 22.125872,22.402951 c 0,-0.535714 0,-0.535714 -1.071429,-0.535714 -1.071429,0 -1.071429,0 -1.071429,0.535714 0,0.535714 0,0.535714 1.071429,0.535714 1.071429,0 1.071429,0 1.071429,-0.535714 z m 4.285714,0 c 0,-0.535714 0,-0.535714 -1.071429,-0.535714 -1.071428,0 -1.071428,0 -1.071428,0.535714 0,0.535714 0,0.535714 1.071428,0.535714 1.071429,0 1.071429,0 1.071429,-0.535714 z m 4.285714,0 c 0,-0.535714 0,-0.535714 -1.071428,-0.535714 -1.071429,0 -1.071429,0 -1.071429,0.535714 0,0.535714 0,0.535714 1.071429,0.535714 1.071428,0 1.071428,0 1.071428,-0.535714 z m 4.285715,0 c 0,-0.535714 0,-0.535714 -1.071429,-0.535714 -1.071429,0 -1.071429,0 -1.071429,0.535714 0,0.535714 0,0.535714 1.071429,0.535714 1.071429,0 1.071429,0 1.071429,-0.535714 z m 4.285714,0 c 0,-0.535714 0,-0.535714 -1.071429,-0.535714 -1.071428,0 -1.071428,0 -1.071428,0.535714 0,0.535714 0,0.535714 1.071428,0.535714 1.071429,0 1.071429,0 1.071429,-0.535714 z m 4.285714,0 c 0,-0.535714 0,-0.535714 -1.071428,-0.535714 -1.071429,0 -1.071429,0 -1.071429,0.535714 0,0.535714 0,0.535714 1.071429,0.535714 1.071428,0 1.071428,0 1.071428,-0.535714 z m 4.285714,0 c 0,-0.535714 0,-0.535714 -1.071428,-0.535714 -1.071429,0 -1.071429,0 -1.071429,0.535714 0,0.535714 0,0.535714 1.071429,0.535714 1.071428,0 1.071428,0 1.071428,-0.535714 z m 4.285715,0 c 0,-0.535714 0,-0.535714 -1.071429,-0.535714 -1.071428,0 -1.071428,0 -1.071428,0.535714 0,0.535714 0,0.535714 1.071428,0.535714 1.071429,0 1.071429,0 1.071429,-0.535714 z m 4.285714,0 c 0,-0.535714 0,-0.535714 -1.071429,-0.535714 -1.071428,0 -1.071428,0 -1.071428,0.535714 0,0.535714 0,0.535714 1.071428,0.535714 1.071429,0 1.071429,0 1.071429,-0.535714 z m 4.285714,0 c 0,-0.535714 0,-0.535714 -1.071428,-0.535714 -1.071429,0 -1.071429,0 -1.071429,0.535714 0,0.535714 0,0.535714 1.071429,0.535714 1.071428,0 1.071428,0 1.071428,-0.535714 z m 4.285715,0 0,-0.535714 -1.160715,0 -1.160714,0 0,0.535714 0,0.535714 1.160714,0 1.160715,0 0,-0.535714 z m 4.285714,0 0,-0.535714 -1.160714,0 -1.160715,0 0,0.535714 0,0.535714 1.160715,0 1.160714,0 0,-0.535714 z m 4.285714,0 0,-0.535714 -1.160714,0 -1.160714,0 0,0.535714 0,0.535714 1.160714,0 1.160714,0 0,-0.535714 z m 4.285714,0 0,-0.535714 -1.160714,0 -1.160714,0 0,0.535714 0,0.535714 1.160714,0 1.160714,0 0,-0.535714 z m -53.571428,-2.053571 0,-0.625 -1.071429,0 -1.071428,0 0,0.625 0,0.625 1.071428,0 1.071429,0 0,-0.625 z m 4.285714,0 0,-0.625 -1.071429,0 -1.071428,0 0,0.625 0,0.625 1.071428,0 1.071429,0 0,-0.625 z m 4.285714,0 0,-0.625 -1.071428,0 -1.071429,0 0,0.625 0,0.625 1.071429,0 1.071428,0 0,-0.625 z m 4.285715,0 0,-0.625 -1.071429,0 -1.071428,0 0,0.625 0,0.625 1.071428,0 1.071429,0 0,-0.625 z m 4.285714,0 0,-0.625 -1.071429,0 -1.071428,0 0,0.625 0,0.625 1.071428,0 1.071429,0 0,-0.625 z m 4.285714,0 0,-0.625 -1.071428,0 -1.071429,0 0,0.625 0,0.625 1.071429,0 1.071428,0 0,-0.625 z m 4.285715,0 0,-0.625 -1.071429,0 -1.071429,0 0,0.625 0,0.625 1.071429,0 1.071429,0 0,-0.625 z m 4.285714,0 0,-0.625 -1.071429,0 -1.071428,0 0,0.625 0,0.625 1.071428,0 1.071429,0 0,-0.625 z m 4.285714,0 0,-0.625 -1.071428,0 -1.071429,0 0,0.625 0,0.625 1.071429,0 1.071428,0 0,-0.625 z m 4.285714,0 0,-0.625 -1.071428,0 -1.071429,0 0,0.625 0,0.625 1.071429,0 1.071428,0 0,-0.625 z m 4.285715,0 0,-0.625 -1.160715,0 -1.160714,0 0,0.625 0,0.625 1.160714,0 1.160715,0 0,-0.625 z m 4.285714,0 0,-0.625 -1.160714,0 -1.160715,0 0,0.625 0,0.625 1.160715,0 1.160714,0 0,-0.625 z m 4.285714,0 0,-0.625 -1.160714,0 -1.160714,0 0,0.625 0,0.625 1.160714,0 1.160714,0 0,-0.625 z m 3.214286,0 c 0,-0.595238 -0.02976,-0.625 -0.625,-0.625 -0.595237,0 -0.625,0.02976 -0.625,0.625 0,0.595238 0.02976,0.625 0.625,0.625 0.595238,0 0.625,-0.02976 0.625,-0.625 z M 22.125872,18.295808 c 0,-0.535714 0,-0.535714 -1.071429,-0.535714 -1.071429,0 -1.071429,0 -1.071429,0.535714 0,0.535714 0,0.535714 1.071429,0.535714 1.071429,0 1.071429,0 1.071429,-0.535714 z m 4.285714,0 c 0,-0.535714 0,-0.535714 -1.071429,-0.535714 -1.071428,0 -1.071428,0 -1.071428,0.535714 0,0.535714 0,0.535714 1.071428,0.535714 1.071429,0 1.071429,0 1.071429,-0.535714 z m 4.285714,0 c 0,-0.535714 0,-0.535714 -1.071428,-0.535714 -1.071429,0 -1.071429,0 -1.071429,0.535714 0,0.535714 0,0.535714 1.071429,0.535714 1.071428,0 1.071428,0 1.071428,-0.535714 z m 4.285715,0 c 0,-0.535714 0,-0.535714 -1.071429,-0.535714 -1.071429,0 -1.071429,0 -1.071429,0.535714 0,0.535714 0,0.535714 1.071429,0.535714 1.071429,0 1.071429,0 1.071429,-0.535714 z m 4.285714,0 c 0,-0.535714 0,-0.535714 -1.071429,-0.535714 -1.071428,0 -1.071428,0 -1.071428,0.535714 0,0.535714 0,0.535714 1.071428,0.535714 1.071429,0 1.071429,0 1.071429,-0.535714 z m 4.285714,0 c 0,-0.535714 0,-0.535714 -1.071428,-0.535714 -1.071429,0 -1.071429,0 -1.071429,0.535714 0,0.535714 0,0.535714 1.071429,0.535714 1.071428,0 1.071428,0 1.071428,-0.535714 z m 4.285714,0 c 0,-0.535714 0,-0.535714 -1.071428,-0.535714 -1.071429,0 -1.071429,0 -1.071429,0.535714 0,0.535714 0,0.535714 1.071429,0.535714 1.071428,0 1.071428,0 1.071428,-0.535714 z m 4.285715,0 c 0,-0.535714 0,-0.535714 -1.071429,-0.535714 -1.071428,0 -1.071428,0 -1.071428,0.535714 0,0.535714 0,0.535714 1.071428,0.535714 1.071429,0 1.071429,0 1.071429,-0.535714 z m 4.285714,0 c 0,-0.535714 0,-0.535714 -1.071429,-0.535714 -1.071428,0 -1.071428,0 -1.071428,0.535714 0,0.535714 0,0.535714 1.071428,0.535714 1.071429,0 1.071429,0 1.071429,-0.535714 z m 4.285714,0 c 0,-0.535714 0,-0.535714 -1.071428,-0.535714 -1.071429,0 -1.071429,0 -1.071429,0.535714 0,0.535714 0,0.535714 1.071429,0.535714 1.071428,0 1.071428,0 1.071428,-0.535714 z m 4.285715,0 0,-0.535714 -1.160715,0 -1.160714,0 0,0.535714 0,0.535714 1.160714,0 1.160715,0 0,-0.535714 z m 4.285714,0 0,-0.535714 -1.160714,0 -1.160715,0 0,0.535714 0,0.535714 1.160715,0 1.160714,0 0,-0.535714 z m 4.285714,0 0,-0.535714 -1.160714,0 -1.160714,0 0,0.535714 0,0.535714 1.160714,0 1.160714,0 0,-0.535714 z m 4.285714,0 0,-0.535714 -1.160714,0 -1.160714,0 0,0.535714 0,0.535714 1.160714,0 1.160714,0 0,-0.535714 z M 24.268729,16.152951 c 0,-0.535714 0,-0.535714 -1.071429,-0.535714 -1.071428,0 -1.071428,0 -1.071428,0.535714 0,0.535714 0,0.535714 1.071428,0.535714 1.071429,0 1.071429,0 1.071429,-0.535714 z m 4.285714,0 c 0,-0.535714 0,-0.535714 -1.071429,-0.535714 -1.071428,0 -1.071428,0 -1.071428,0.535714 0,0.535714 0,0.535714 1.071428,0.535714 1.071429,0 1.071429,0 1.071429,-0.535714 z m 4.285714,0 c 0,-0.535714 0,-0.535714 -1.071428,-0.535714 -1.071429,0 -1.071429,0 -1.071429,0.535714 0,0.535714 0,0.535714 1.071429,0.535714 1.071428,0 1.071428,0 1.071428,-0.535714 z m 4.285715,0 c 0,-0.535714 0,-0.535714 -1.071429,-0.535714 -1.071428,0 -1.071428,0 -1.071428,0.535714 0,0.535714 0,0.535714 1.071428,0.535714 1.071429,0 1.071429,0 1.071429,-0.535714 z m 4.285714,0 c 0,-0.535714 0,-0.535714 -1.071429,-0.535714 -1.071428,0 -1.071428,0 -1.071428,0.535714 0,0.535714 0,0.535714 1.071428,0.535714 1.071429,0 1.071429,0 1.071429,-0.535714 z m 4.285714,0 c 0,-0.535714 0,-0.535714 -1.071428,-0.535714 -1.071429,0 -1.071429,0 -1.071429,0.535714 0,0.535714 0,0.535714 1.071429,0.535714 1.071428,0 1.071428,0 1.071428,-0.535714 z m 4.285715,0 c 0,-0.535714 0,-0.535714 -1.071429,-0.535714 -1.071429,0 -1.071429,0 -1.071429,0.535714 0,0.535714 0,0.535714 1.071429,0.535714 1.071429,0 1.071429,0 1.071429,-0.535714 z m 4.285714,0 c 0,-0.535714 0,-0.535714 -1.071429,-0.535714 -1.071428,0 -1.071428,0 -1.071428,0.535714 0,0.535714 0,0.535714 1.071428,0.535714 1.071429,0 1.071429,0 1.071429,-0.535714 z m 4.285714,0 c 0,-0.535714 0,-0.535714 -1.071428,-0.535714 -1.071429,0 -1.071429,0 -1.071429,0.535714 0,0.535714 0,0.535714 1.071429,0.535714 1.071428,0 1.071428,0 1.071428,-0.535714 z m 4.285714,0 c 0,-0.535714 0,-0.535714 -1.071428,-0.535714 -1.071429,0 -1.071429,0 -1.071429,0.535714 0,0.535714 0,0.535714 1.071429,0.535714 1.071428,0 1.071428,0 1.071428,-0.535714 z m 4.285715,0 0,-0.535714 -1.160715,0 -1.160714,0 0,0.535714 0,0.535714 1.160714,0 1.160715,0 0,-0.535714 z m 4.285714,0 0,-0.535714 -1.160714,0 -1.160715,0 0,0.535714 0,0.535714 1.160715,0 1.160714,0 0,-0.535714 z m 4.285714,0 0,-0.535714 -1.160714,0 -1.160714,0 0,0.535714 0,0.535714 1.160714,0 1.160714,0 0,-0.535714 z m 3.214286,0 c 0,-0.493197 -0.0496,-0.535714 -0.625,-0.535714 -0.575396,0 -0.625,0.04252 -0.625,0.535714 0,0.493197 0.0496,0.535714 0.625,0.535714 0.575396,0 0.625,-0.04252 0.625,-0.535714 z"
       id="path3103"
       transform="translate(172.64287,280.07933)" />
    <path
       style="fill:#0000ff;fill-opacity:1;stroke:#ffd047;stroke-width:0.17857143;stroke-opacity:0.5335968"
       d="m 15.875872,57.135094 0,-45.625 33.571428,0 33.571429,0 0,45.625 0,45.624996 -33.571429,0 -33.571428,0 0,-45.624996 z m 65.178571,0 0,-43.660714 -31.607143,0 -31.607143,0 0,43.660714 0,43.660716 31.607143,0 31.607143,0 0,-43.660716 z"
       id="path3105"
       transform="translate(172.64287,280.07933)" />
  </g>
</svg>
